<svg xmlns="http://www.w3.org/2000/svg" viewBox="0 0 1959.2 348.6"><defs><style>.cls-1{fill:#fdc300;}.cls-2{fill:#1d1d1b;}.cls-3{fill:#0091d3;}.cls-4{fill:#fff;}.cls-5{fill:#e63312;}.cls-6{fill:#fac182;}.cls-7{fill:#289b38;}</style></defs><title>Recurso 1</title><g id="Capa_2" data-name="Capa 2"><g id="Capa_1-2" data-name="Capa 1"><path class="cls-1" d="M76,56.31,56.9,59.12,76,61.9a.56.56,0,0,1,.22,1A21.85,21.85,0,0,1,70,65.41a77.24,77.24,0,0,0-8.21,2.32,28,28,0,0,0-3.6,1.55,21.49,21.49,0,0,1,8-.31c.2,0,2.54.23,3.26.25.95,0,1.86,0,2.71-.05l.28-.2a37.9,37.9,0,0,1,11.64-5.19A1.48,1.48,0,0,1,86,65.31s0,.19-.05.43A25.19,25.19,0,0,1,89.17,64,38.71,38.71,0,0,1,101.4,61.2,1.49,1.49,0,0,1,103,62.92a1.8,1.8,0,0,1,0,.18,24.46,24.46,0,0,1,4.73-1.42,38.84,38.84,0,0,1,12.57-.17,1.48,1.48,0,0,1,1.28,1.6,24.78,24.78,0,0,1,4.38-.34,38.8,38.8,0,0,1,12.34,2.36,1.49,1.49,0,0,1,1,1.46,22.67,22.67,0,0,1,9.34,2l.48.08a77.36,77.36,0,0,0,8.47,1,28.13,28.13,0,0,0,3.91,0,21.43,21.43,0,0,1-7.54-2.82c-.9-.49-1.82-1-2.91-1.49a31.84,31.84,0,0,0-7.37-2.26.55.55,0,0,1,0-1.1l19.12-2.86-19.11-2.74a.56.56,0,0,1-.22-1,21.86,21.86,0,0,1,6.31-2.47,77.63,77.63,0,0,0,8.22-2.31,27.65,27.65,0,0,0,3.6-1.54,21.42,21.42,0,0,1-8,.29c-1-.11-2.06-.22-3.26-.26a31.74,31.74,0,0,0-7.68.73.55.55,0,0,1-.42-1l16.57-9.94L140,43.62a.56.56,0,0,1-.59-.86,21.85,21.85,0,0,1,4.88-4.7A76.94,76.94,0,0,0,151,32.78a27.9,27.9,0,0,0,2.74-2.8,21.5,21.5,0,0,1-7.32,3.36c-1,.29-2,.59-3.11,1A31.87,31.87,0,0,0,136.49,38a.55.55,0,0,1-.77-.78l11.51-15.51L131.76,33.24a.55.55,0,0,1-.87-.57,21.81,21.81,0,0,1,2.71-6.21A77.84,77.84,0,0,0,137.76,19a27.62,27.62,0,0,0,1.45-3.64,21.45,21.45,0,0,1-5.48,5.91c-.79.64-1.61,1.31-2.48,2.13a31.59,31.59,0,0,0-4.9,6,.56.56,0,0,1-1-.42l4.72-18.73-9.89,16.6a.55.55,0,0,1-1-.19,21.79,21.79,0,0,1,.12-6.78,77.5,77.5,0,0,0,1-8.47,27.82,27.82,0,0,0-.05-3.92,21.47,21.47,0,0,1-2.8,7.56c-.49.9-1,1.82-1.48,2.92a31.78,31.78,0,0,0-2.24,7.38.55.55,0,0,1-1.1,0l-2.78-19-2.69,19a.56.56,0,0,1-1,.22,21.81,21.81,0,0,1-2.47-6.31,76.55,76.55,0,0,0-2.3-8.22,27.89,27.89,0,0,0-1.53-3.61,21.52,21.52,0,0,1,.29,8.05c-.11,1-.22,2.06-.26,3.26a31.8,31.8,0,0,0,.73,7.68.55.55,0,0,1-1,.42l-10-16.58,4.81,18.7a.56.56,0,0,1-.86.59,21.86,21.86,0,0,1-4.7-4.89,78,78,0,0,0-5.27-6.71,27.73,27.73,0,0,0-2.8-2.74A21.51,21.51,0,0,1,84.1,22.5c.29,1,.59,2,1,3.11a31.83,31.83,0,0,0,3.62,6.81.55.55,0,0,1-.77.77L72.4,21.69,84,37.15a.55.55,0,0,1-.57.87,21.8,21.8,0,0,1-6.21-2.71,77.35,77.35,0,0,0-7.44-4.17,28.09,28.09,0,0,0-3.64-1.46A21.53,21.53,0,0,1,72,35.16c.64.8,1.31,1.61,2.12,2.49a31.9,31.9,0,0,0,6,4.91.55.55,0,0,1-.42,1l-18.77-4.7,16.63,9.87a.56.56,0,0,1-.19,1,21.89,21.89,0,0,1-6.78-.13,77.08,77.08,0,0,0-8.47-1,27.68,27.68,0,0,0-3.92,0,21.4,21.4,0,0,1,7.56,2.8c.9.49,1.83,1,2.91,1.48A31.9,31.9,0,0,0,76,55.21a.55.55,0,0,1,0,1.1"/><path class="cls-2" d="M115.66,45.39c16-2.55,17.76,2.07,17.76,2.07a1.39,1.39,0,0,0,1.72.72s1.09-.11.54-1.4c0,0-1.75-5.23-10.26-6.14a34,34,0,0,0-9.19.26c-1.42.25-1.82,3.38-1.82,3.38-.2,1.41,1.25,1.11,1.25,1.11"/><path class="cls-2" d="M102,48.49c-2-.89-6.41-.7-6.41-.7-7.23.24-9.13,4.73-9.13,4.73-.64,1.51.63,1.64.63,1.64a1.62,1.62,0,0,0,2-.84s.41-1.28,3.39-2a3.7,3.7,0,1,0,6.84-.09A4.76,4.76,0,0,1,102,53.61c.26.53.81.76,2.19.76s1.12-1,1.12-1c-.89-3.79-3.29-4.91-3.29-4.91"/><path class="cls-2" d="M115.33,54.37c1.38,0,1.93-.23,2.19-.76a4.75,4.75,0,0,1,2.65-2.39,3.7,3.7,0,1,0,6.84.09c3,.73,3.39,2,3.39,2a1.63,1.63,0,0,0,2,.84s1.27-.13.63-1.64c0,0-1.9-4.48-9.13-4.73,0,0-4.45-.19-6.41.7,0,0-2.4,1.12-3.29,4.91,0,0-.36,1,1.12,1"/><path class="cls-2" d="M84.38,48.18a1.4,1.4,0,0,0,1.72-.72s1.76-4.62,17.76-2.07c0,0,1.45.3,1.25-1.11,0,0-.4-3.13-1.82-3.38a34,34,0,0,0-9.19-.26c-8.51.91-10.27,6.14-10.27,6.14-.55,1.3.54,1.4.54,1.4"/><path class="cls-3" d="M106.89,169.21H87.43c-4.24,0-6.58-1.76-7.79-3.24a10,10,0,0,1-2-4.79,2.48,2.48,0,0,1-.06-.44,18.39,18.39,0,0,1,.28-5.88c2.53-12.72,7.63-21.32,11.84-26.57a7.06,7.06,0,0,1-1.35-.59c-2.69-1.53-4-4.62-3.4-8.08.72-4.22,4.72-8.51,5.43-9.24,6.7-7.84,16.66-8.26,17.89-8.28,1.48-.11,14.59-.68,21.66,13.09,8.45,16.44,10.45,30,12.06,40.92l.08.52a11.89,11.89,0,0,1-.19,4.81,2.53,2.53,0,0,1-.13.43,9,9,0,0,1-2,3.43,12.89,12.89,0,0,1-7.66,3.66,22.09,22.09,0,0,1-3.43.27l-.8,0H112.73v27.52h86.86a151.71,151.71,0,0,0-7.11-46.43,126,126,0,0,0-19.35-37.83A92.81,92.81,0,0,0,144.58,87.1,69.93,69.93,0,0,0,75,87.1a92.78,92.78,0,0,0-28.55,25.38A126,126,0,0,0,27.15,150.3,151.67,151.67,0,0,0,20,196.73h86.85Z"/><path class="cls-4" d="M20,196.73a154.14,154.14,0,0,0,4.11,35.65c38.85-4.42,62-9,68.91-13.59,4.84-3.41,8.74-5.39,13.83-5.24V196.73Z"/><path class="cls-4" d="M112.73,214.22a31.73,31.73,0,0,1,8.87,3l.86,0c5-.23,9.21,1.3,15.07,3.41,1.6.58,3.42,1.23,5.4,1.91.85.27,28.79,9,52.43,10.39a154,154,0,0,0,4.23-36.15H112.73Z"/><polyline class="cls-2" points="104.06 62.66 104.07 62.66 104.06 62.66"/><path class="cls-5" d="M83.36,162.92a4,4,0,0,1-.57-.95c8.24-3.75,12.17-4.76,23.49,2.43H87.43c-1.92,0-3.25-.48-4.07-1.48"/><path class="cls-5" d="M128.1,164.41H122a25.55,25.55,0,0,1-12.54-3.67c-13.08-8.44-19-7.42-27.11-3.84q.07-.54.18-1.09a57.61,57.61,0,0,1,9.86-23.16,37.76,37.76,0,0,1,5.81-6.33q.52-.38,1-.81a2.41,2.41,0,0,0-2.94-3.8c-.09.06-.49.34-1.11.86-2,1.42-3.62,1.46-4.5,1s-1.27-1.66-1-3.08c.42-2.46,3.16-5.71,4.18-6.75l.12-.13c5.52-6.51,14.27-6.65,14.4-6.65h.22a17.39,17.39,0,0,1,6.22.9,18.49,18.49,0,0,1,10.82,9.58,102.85,102.85,0,0,1,8.07,21,33.21,33.21,0,0,1-9.22-5.08,2.41,2.41,0,0,0-3.07,3.71A35.94,35.94,0,0,0,135,143.75c.64,3,1.14,5.87,1.56,8.58a34.56,34.56,0,0,0-7.65-2.7,39,39,0,0,1-4.14-1.25,42.68,42.68,0,0,1-9.28-5.36,2.41,2.41,0,1,0-3,3.77,47,47,0,0,0,10.47,6.05,41.4,41.4,0,0,0,4.69,1.43c6.38,1.69,9.32,3,9.44,6.32a4.17,4.17,0,0,1-.86,1.42c-2.06,2.24-6.57,2.48-8.13,2.38"/><path class="cls-2" d="M86,65.32"/><polyline class="cls-2" points="85.95 65.33 85.95 65.33 85.95 65.33 85.95 65.33"/><path class="cls-6" d="M102.59,254.4c-1.84-1.59-3.77-.72-7.42,1.84-1.55,1.09-4.13,3.22-3.91,5.27a1.87,1.87,0,0,0,.8,1.49c1.19.82,3.46.67,4.88.43a13.3,13.3,0,0,1,4.81-5.46,4.12,4.12,0,0,0,1.63-2.28,1.77,1.77,0,0,0-.78-1.29"/><path class="cls-6" d="M100.78,265a2.78,2.78,0,0,0,1.63,1c2.26.45,5.38-1.48,6.29-2.2h0l.14-.1h0c.64-.41,2-1.59,2.11-2.61,0-.17.07-.69-.78-1.51-.12-.1-1.36-1-4.06.58-2.09,1.21-4.38,2.68-5.37,4.9"/><path class="cls-6" d="M82.84,248c-2-.3-5.3,1.18-6.73,3-1,1.25-.62,2-.51,2.28.23.53,1.25,1,2.66,1.22.41.07.82.11,1.19.13a11.21,11.21,0,0,1,3.41-5.14c.39-.38.87-.82,1.42-1.27A6.13,6.13,0,0,0,83,248l-.17,0"/><path class="cls-6" d="M92.7,250c-1.91-1-4.12-.14-7,2.58-1.78,1.71-2.42,2.81-2.35,4.07,0,.52.22,1.76,2.59,2.54a9.77,9.77,0,0,0,1.34.33c.61-2.3,2.44-4.53,5.46-6.65.42-.3.88-.61,1.35-.93a1.24,1.24,0,0,0,0-.65A2.75,2.75,0,0,0,92.7,250"/><path class="cls-6" d="M144.73,249.07a53.94,53.94,0,0,0-12-11.06,45.78,45.78,0,0,0-8.16-4.45c-3.16-1.22-5.86-1.49-8.25-.84l-.12,0a11,11,0,0,0-3,1.62c-.75.5-1.6,1.06-2.57,1.62a22.7,22.7,0,0,1-9.32,2.81c-2.64.15-5.94.33-7.94-2.47a5.41,5.41,0,0,1-.89-5.41v0c.65-1.73,2.75-2.76,5.41-4.06a33.19,33.19,0,0,0,3.22-1.72,32.29,32.29,0,0,0,3.08-2.3c1-.8,2.11-1.72,3.92-3a12.38,12.38,0,0,1,3.17-1.62c-1.1-.18-2.33-.33-3.74-.45-4.42-.38-7.57,1.2-12.17,4.45l0,0c-3.88,2.6-11.56,5-23.49,7.41-11.45,2.29-27.17,4.58-46.73,6.81q.91,3.38,2,6.71a133.42,133.42,0,0,0,9.31,22.12c6.86-3,24-10.76,37.39-17.9,2.51-2.4,6.47-3.9,9.51-3.5a9.25,9.25,0,0,1,5.05,2,7.84,7.84,0,0,1,6.15.38A6.5,6.5,0,0,1,98,249.88l.21-.07a7,7,0,0,1,7.06,1.45,5.88,5.88,0,0,1,2.2,3.93,6.23,6.23,0,0,1,5.62,1.4,5.88,5.88,0,0,1,2,4.93,6.44,6.44,0,0,1-1.2,3,7.92,7.92,0,0,0,4.23-.42,7.62,7.62,0,0,0,1.43-.75,21.73,21.73,0,0,0-3.32-4.88,2.08,2.08,0,0,1,3.11-2.76,25.29,25.29,0,0,1,4.24,6.46,3.83,3.83,0,0,0,3.41-1,5.78,5.78,0,0,0,1.15-1.62,14.83,14.83,0,0,0-2.49-3.58,37.46,37.46,0,0,0-5.32-4.47,2.08,2.08,0,0,1,2.39-3.4,41.75,41.75,0,0,1,6.07,5.16,19.33,19.33,0,0,1,3.12,4.54,4.69,4.69,0,0,0,4.92-2.79c-1.55-2.09-6.2-7.88-11.81-10.62a2.08,2.08,0,1,1,1.83-3.74c6.49,3.17,11.6,9.54,13.35,11.9a4.82,4.82,0,0,0,3.36-1.09,4.11,4.11,0,0,0,1.14-2.36"/><path class="cls-6" d="M159.72,231.36c-10.46-2.49-18-4.88-18.07-4.9h0c-2-.69-3.87-1.35-5.5-1.94-5.61-2-9.31-3.36-13.47-3.17l-1.43.05h0l-1.87,0c-3.87.08-6.42.13-8.79,1.8-1.7,1.19-2.76,2.06-3.69,2.82a36.25,36.25,0,0,1-3.43,2.56,36,36,0,0,1-3.66,2,19.11,19.11,0,0,0-3.39,1.91c-.12.35-.13.66.42,1.43s2,.86,4.32.73a18.5,18.5,0,0,0,7.47-2.26c.86-.49,1.61-1,2.35-1.48a13.44,13.44,0,0,1,4.33-2.2c7.59-2.06,15.48,3.07,19.72,5.83a57.27,57.27,0,0,1,12.2,11l.34.41.1.12h0a23.33,23.33,0,0,0,4.07,3.64c9.83,7.29,24.67,13.74,31.07,16.36a132.91,132.91,0,0,0,9.71-22.86q1-3.06,1.83-6.17c-12.31-.79-25.48-3.46-34.59-5.63"/><path class="cls-4" d="M148.11,252.16a7.56,7.56,0,0,1-1.6,2.25,8.6,8.6,0,0,1-5.83,2.27,9.22,9.22,0,0,1-1.45,2.28,9,9,0,0,1-7.6,3,9.83,9.83,0,0,1-1.54,2.06,8,8,0,0,1-7.39,2.24,11.68,11.68,0,0,1-3,1.74,12.27,12.27,0,0,1-7,.56v23a2.92,2.92,0,1,1-5.84,0V269.5a11,11,0,0,1-3.76.73,7.79,7.79,0,0,1-1.53-.15,7,7,0,0,1-4.12-2.52c-1.95.31-5.35.53-7.77-1.12a5.8,5.8,0,0,1-2.17-2.72,14.9,14.9,0,0,1-2.75-.58,7.64,7.64,0,0,1-5.1-4.29,17.91,17.91,0,0,1-2-.18c-2.1-.32-4.83-1.23-5.9-3.68a5.86,5.86,0,0,1-.45-1.61C59,259.76,44.83,266.12,38.49,268.93a116.31,116.31,0,0,0,8,12.05A92.79,92.79,0,0,0,75,306.36a74.34,74.34,0,0,0,15.35,6.46,6.69,6.69,0,0,1,2.27-2.47c5-3.25,14.46-.88,17.14-.12,2.68-.77,12.15-3.14,17.14.12a6.7,6.7,0,0,1,2.27,2.48,74.33,74.33,0,0,0,15.36-6.47A92.75,92.75,0,0,0,173.14,281a116.42,116.42,0,0,0,7.57-11.31c-7-2.9-22.59-9.76-32.6-17.51"/><path class="cls-2" d="M217.85,218.21a1.87,1.87,0,0,0-1.3-.44c.37-.78.72-1.6,1-2.44a37.78,37.78,0,0,0,2.12-12.64,1.86,1.86,0,0,0-2.11-1.87c.28-.78.52-1.58.73-2.39a37.74,37.74,0,0,0,.85-12.78,1.86,1.86,0,0,0-2.3-1.64,27.23,27.23,0,0,0,.59-2.82,37.77,37.77,0,0,0-.4-12.81A1.87,1.87,0,0,0,216,167a1.83,1.83,0,0,0-1-.12c.12-.66.21-1.32.29-2a37.78,37.78,0,0,0-1-12.78,1.86,1.86,0,0,0-2.93-1.06h0a28,28,0,0,0,.08-3.1,37.81,37.81,0,0,0-2.75-12.52,1.87,1.87,0,0,0-2.78-.87,27.75,27.75,0,0,0-.24-2.86,37.91,37.91,0,0,0-4-12.17,1.86,1.86,0,0,0-2.85-.58c-.14-.88-.32-1.76-.55-2.64a38.1,38.1,0,0,0-5.44-11.64,1.91,1.91,0,0,0-1.56-.82,1.87,1.87,0,0,0-1.52.81,27.41,27.41,0,0,0-1.14-3.06A38.17,38.17,0,0,0,181.27,91a1.86,1.86,0,0,0-2.87.19,28.37,28.37,0,0,0-1.68-3A37.73,37.73,0,0,0,168,79a1.86,1.86,0,0,0-2.82.66A21.45,21.45,0,0,0,155,72.39c.76.07,1.54.14,2.34.19a27.54,27.54,0,0,0,8.94-.82,2.36,2.36,0,0,0-.57-4.61c-5.64-.27-7.75-1.43-10.43-2.89-.51-.28-1-.57-1.6-.86l13.22-2a2.36,2.36,0,0,0,0-4.67l-13.12-1.88c1.52-.4,3.29-.92,5.11-1.55a27.55,27.55,0,0,0,7.95-4.19,2.36,2.36,0,0,0-2.3-4c-5.31,1.91-7.71,1.65-10.74,1.33L152,46.26l11.43-6.86a2.36,2.36,0,0,0-1.79-4.3l-12.88,3.28c1.25-1,2.7-2.13,4.15-3.42A27.61,27.61,0,0,0,158.66,28,2.36,2.36,0,0,0,155,25.19c-4.17,3.8-6.48,4.48-9.41,5.35l-1.69.51,7.93-10.68a2.36,2.36,0,0,0-3.3-3.3l-10.68,8c.79-1.38,1.69-3,2.54-4.78A27.52,27.52,0,0,0,143,11.69a2.36,2.36,0,0,0-4.48-1.22c-2.39,5.11-4.27,6.63-6.64,8.55-.44.35-.88.71-1.34,1.1L133.8,7.25a2.36,2.36,0,0,0-4.31-1.78L122.65,17c.21-1.58.41-3.46.52-5.43a27.61,27.61,0,0,0-.85-8.94,2.36,2.36,0,0,0-4.61.59c-.25,5.63-1.4,7.75-2.86,10.44-.26.49-.53,1-.8,1.51L112.13,2a2.36,2.36,0,0,0-2.33-2h0a2.36,2.36,0,0,0-2.33,2l-1.84,13c-.4-1.5-.91-3.25-1.53-5a27.73,27.73,0,0,0-4.19-8,2.36,2.36,0,0,0-4,2.3c1.91,5.31,1.65,7.71,1.33,10.74-.07.59-.13,1.19-.18,1.82L90.1,5.47a2.36,2.36,0,0,0-4.3,1.8l3.29,12.81c-.95-1.24-2.1-2.67-3.37-4.1a27.54,27.54,0,0,0-6.91-5.74A2.36,2.36,0,0,0,76,13.91c3.8,4.17,4.48,6.49,5.34,9.41.16.56.33,1.12.52,1.72l-10.75-8a2.36,2.36,0,0,0-3.29,3.31l8,10.63c-1.37-.79-3-1.67-4.72-2.51a27.61,27.61,0,0,0-8.59-2.65,2.36,2.36,0,0,0-1.23,4.48c5.11,2.4,6.62,4.27,8.54,6.65.36.44.72.9,1.12,1.37L58,35.12a2.36,2.36,0,0,0-1.78,4.31l11.47,6.81c-1.57-.21-3.42-.4-5.37-.52a27.67,27.67,0,0,0-8.95.84,2.36,2.36,0,0,0,.58,4.61c5.64.26,7.76,1.41,10.44,2.87l1.53.81L52.72,56.79a2.36,2.36,0,0,0,0,4.66L66,63.39c-1.54.41-3.35.95-5.2,1.59a27.51,27.51,0,0,0-7.94,4.21,2.36,2.36,0,0,0,2.31,4,22.35,22.35,0,0,1,7-1.56,52.18,52.18,0,0,0-5.89,5.74c-.53.67-1,1.36-1.48,2.06A1.87,1.87,0,0,0,52,79a38.32,38.32,0,0,0-8.85,9.35,27.81,27.81,0,0,0-1.67,3A1.86,1.86,0,0,0,38.6,91a38.15,38.15,0,0,0-7.25,10.62,27.49,27.49,0,0,0-1.09,2.91,1.87,1.87,0,0,0-2.79.24,38,38,0,0,0-5.92,11.38,27.54,27.54,0,0,0-.73,3,1.86,1.86,0,0,0-3,.36,37.86,37.86,0,0,0-4.15,12.13,27.63,27.63,0,0,0-.26,2.9,1.87,1.87,0,0,0-2.92.79,37.85,37.85,0,0,0-2.58,12.56,27.7,27.7,0,0,0,.1,2.84,1.87,1.87,0,0,0-2.75,1.18,37.84,37.84,0,0,0-1,12.78c.08.73.19,1.46.32,2.18a1.86,1.86,0,0,0-1.93,1.51,37.82,37.82,0,0,0-.4,12.81,27.67,27.67,0,0,0,.61,2.92A1.86,1.86,0,0,0,1,185.74a37.82,37.82,0,0,0,.41,12.81c.18.83.41,1.66.66,2.46A1.87,1.87,0,0,0,0,202.82a37.83,37.83,0,0,0,1.76,12.7A27.51,27.51,0,0,0,3,218.66l-.23-.06a1.86,1.86,0,0,0-2.31,2.09,37.82,37.82,0,0,0,3.95,12.2c.36.67.75,1.31,1.16,1.94a1.86,1.86,0,0,0-1.33,2.23,38,38,0,0,0,4.86,11.88c.51.78,1,1.54,1.62,2.25a1.87,1.87,0,0,0-1.54,2.49,38.15,38.15,0,0,0,6.2,11.25c.55.67,1.13,1.31,1.73,1.91A1.86,1.86,0,0,0,16,269.46a38.23,38.23,0,0,0,7.48,10.46c.6.58,1.23,1.13,1.87,1.64a1.86,1.86,0,0,0-.82,2.72,38.38,38.38,0,0,0,8.54,9.63,28,28,0,0,0,2.91,2l-.4.12a1.87,1.87,0,0,0-.72,3,44.24,44.24,0,0,0,9.95,8,26.79,26.79,0,0,0,8.19,3.1,18.08,18.08,0,0,0,6.61.08,2.39,2.39,0,0,0,.37-.08A98.61,98.61,0,0,0,78.26,320.3a89.77,89.77,0,0,0,16.19,5.12c1.14.24,2.23.45,3.27.63A14.47,14.47,0,0,1,91.5,322a9.19,9.19,0,0,1-.74-1.06,88,88,0,0,1-11.14-3.85,95,95,0,0,1-17.49-9.72l0-.21a18.46,18.46,0,0,0-.62-5.66,82,82,0,0,0,11.5,8.05,77.58,77.58,0,0,0,16.48,6.87c0-.32,0-.65.06-1a7.27,7.27,0,0,1,.8-2.61A74.4,74.4,0,0,1,75,306.36,92.82,92.82,0,0,1,46.49,281a115.91,115.91,0,0,1-8-12.05c6.34-2.81,20.48-9.17,32.85-15.54a5.9,5.9,0,0,0,.45,1.61c1.07,2.46,3.8,3.36,5.9,3.68a18.11,18.11,0,0,0,2,.19,7.65,7.65,0,0,0,5.1,4.28,14.92,14.92,0,0,0,2.75.58,5.82,5.82,0,0,0,2.17,2.72c2.42,1.65,5.82,1.43,7.77,1.12a7.05,7.05,0,0,0,4.12,2.52,7.91,7.91,0,0,0,1.53.15,11,11,0,0,0,3.76-.73v22.06a2.92,2.92,0,1,0,5.84,0v-23a12.21,12.21,0,0,0,7-.56,11.6,11.6,0,0,0,3-1.74,8,8,0,0,0,7.38-2.25,9.75,9.75,0,0,0,1.54-2.06,9,9,0,0,0,7.6-3,9.23,9.23,0,0,0,1.45-2.28,8.61,8.61,0,0,0,5.84-2.27,7.58,7.58,0,0,0,1.6-2.25c10,7.75,25.55,14.61,32.59,17.51A116.67,116.67,0,0,1,173.14,281a92.82,92.82,0,0,1-28.55,25.38,74.39,74.39,0,0,1-15.36,6.47,7.2,7.2,0,0,1,.8,2.6c0,.33.05.66.06,1a77.57,77.57,0,0,0,16.49-6.88,83.77,83.77,0,0,0,11.62-8.15,18.1,18.1,0,0,0-.66,5.72,2.44,2.44,0,0,0,0,.28,78,78,0,0,1-12.83,7.79,84.71,84.71,0,0,1-15.31,5.75l-.66.16a9.21,9.21,0,0,1-.64.89,14.59,14.59,0,0,1-6.35,4.11,81.1,81.1,0,0,0,8.61-1.81,88.3,88.3,0,0,0,16-6,80.31,80.31,0,0,0,13.41-8.17l.28.1a18,18,0,0,0,6.65-.07,26.78,26.78,0,0,0,8.19-3.1,44.28,44.28,0,0,0,9.95-8,1.86,1.86,0,0,0-.72-3l-.29-.09a28.28,28.28,0,0,0,3-2,38.44,38.44,0,0,0,8.54-9.63,1.86,1.86,0,0,0-.82-2.72c.64-.51,1.27-1.07,1.87-1.64a38.23,38.23,0,0,0,7.48-10.46,1.86,1.86,0,0,0-1.4-2.68c.66-.65,1.29-1.34,1.88-2.07a38.07,38.07,0,0,0,6.2-11.25,1.86,1.86,0,0,0-1.68-2.5h0c.55-.68,1.08-1.39,1.57-2.13a38,38,0,0,0,5-11.8,1.86,1.86,0,0,0-1.94-2.32,28,28,0,0,0,1.43-2.52,37.89,37.89,0,0,0,3.53-12.33,1.86,1.86,0,0,0-.64-1.65m-1.92-29.66a.1.1,0,0,1,.16.07,32.67,32.67,0,0,1-.89,8.87,22,22,0,0,1-3.18,7.17,16.89,16.89,0,0,1-4.23,4.28l-.06,0a.1.1,0,0,1-.07,0c-4.55-5.14-5-12.77-4.83-16.86a.09.09,0,0,1,.06-.09.1.1,0,0,1,.11,0,29.22,29.22,0,0,1,4.1,6,1.39,1.39,0,0,0,2.55-.14,22.12,22.12,0,0,1,6.28-9.26m-1.81-17a.09.09,0,0,1,.1,0,.1.1,0,0,1,.07.08,32.62,32.62,0,0,1,0,8.91,22,22,0,0,1-2.46,7.45,16.77,16.77,0,0,1-3.86,4.74l-.06,0-.06,0C203.34,189,202,181,201.57,176.5a.1.1,0,0,1,.05-.1.1.1,0,0,1,.11,0,29.6,29.6,0,0,1,4.53,5.4,1.39,1.39,0,0,0,2.53-.39,22.17,22.17,0,0,1,5.34-9.84m-2.67-16.12a.1.1,0,0,1,.17,0,32.63,32.63,0,0,1,.41,8.91,22,22,0,0,1-2.11,7.56,16.8,16.8,0,0,1-3.57,4.85.09.09,0,0,1-.06,0l-.06,0c-3.78-3.19-5.57-7.9-6.41-11.28a34.16,34.16,0,0,1-.82-4.73.1.1,0,0,1,.05-.1.09.09,0,0,1,.11,0,29.51,29.51,0,0,1,4.94,5.32,1.39,1.39,0,0,0,2.5-.51,22.15,22.15,0,0,1,4.87-10.08M82.37,156.9c0-.36.11-.72.18-1.09a57.58,57.58,0,0,1,9.86-23.16,38,38,0,0,1,5.81-6.33q.52-.38,1-.81a2.41,2.41,0,0,0-2.94-3.8c-.09.06-.49.34-1.11.87-2,1.42-3.62,1.46-4.5,1s-1.27-1.66-1-3.08c.42-2.46,3.16-5.7,4.18-6.75l.12-.13c5.52-6.51,14.27-6.65,14.4-6.65h.22a17.21,17.21,0,0,1,6.22.9,18.47,18.47,0,0,1,10.82,9.58,102.78,102.78,0,0,1,8.07,21,33.31,33.31,0,0,1-9.22-5.08,2.41,2.41,0,0,0-3.07,3.71A36,36,0,0,0,135,143.75c.64,3,1.14,5.87,1.56,8.58a34.46,34.46,0,0,0-7.65-2.7,38.4,38.4,0,0,1-4.14-1.25,42.7,42.7,0,0,1-9.28-5.36,2.41,2.41,0,0,0-3,3.77,47.15,47.15,0,0,0,10.47,6.05,41.72,41.72,0,0,0,4.69,1.43c6.37,1.69,9.32,3,9.43,6.32a4.13,4.13,0,0,1-.85,1.42c-2.06,2.24-6.57,2.48-8.13,2.38H122a25.59,25.59,0,0,1-12.54-3.67c-13.08-8.44-19-7.42-27.11-3.84m23.91,7.51H87.43c-1.92,0-3.25-.48-4.07-1.48a4,4,0,0,1-.57-.95c8.24-3.75,12.17-4.76,23.49,2.43m6.45,32.33V169.22h15.14l.8,0a22.07,22.07,0,0,0,3.43-.27,12.86,12.86,0,0,0,7.66-3.66,9,9,0,0,0,2-3.43,2.24,2.24,0,0,0,.13-.43,11.87,11.87,0,0,0,.19-4.81l-.08-.52c-1.61-10.9-3.61-24.48-12.06-40.92-7.08-13.77-20.18-13.2-21.66-13.09-1.23,0-11.19.45-17.89,8.28-.71.74-4.71,5-5.43,9.25-.59,3.46.71,6.55,3.4,8.08a7,7,0,0,0,1.34.59c-4.2,5.25-9.3,13.84-11.84,26.57a18.33,18.33,0,0,0-.28,5.88,2.3,2.3,0,0,0,.06.44,10,10,0,0,0,2,4.79c1.21,1.48,3.55,3.24,7.79,3.24h19.46v44.33c-5.1-.15-9,1.83-13.83,5.24C86.17,223.39,63,228,24.14,232.38A154,154,0,0,1,20,196.73a151.65,151.65,0,0,1,7.11-46.43,126,126,0,0,1,19.35-37.83A92.81,92.81,0,0,1,75,87.09a69.94,69.94,0,0,1,69.54,0,92.81,92.81,0,0,1,28.55,25.38,126,126,0,0,1,19.34,37.83,151.69,151.69,0,0,1,7.11,46.43,154,154,0,0,1-4.23,36.15c-23.64-1.36-51.59-10.12-52.43-10.39-2-.68-3.8-1.33-5.4-1.91-5.86-2.11-10.09-3.64-15.07-3.41l-.86,0a31.66,31.66,0,0,0-8.87-3ZM149.45,72.39a34.29,34.29,0,0,1-6.18,1.8,24.75,24.75,0,0,1-4.53.45,14.75,14.75,0,0,1-8.68-2.52.1.1,0,0,1,0-.09.1.1,0,0,1,0-.08,19.24,19.24,0,0,1,5.11-2,18.52,18.52,0,0,1,7.37-.22,21.84,21.84,0,0,1,6.91,2.5.1.1,0,0,1,.05.09.1.1,0,0,1-.06.08m3.4,9.58a.1.1,0,0,1,0,.09.09.09,0,0,1-.06.07,15.68,15.68,0,0,1-4.47.84h-.67A19,19,0,0,1,136,78.58a.09.09,0,0,1,0-.09.1.1,0,0,1,.07-.07,21,21,0,0,1,5.05-1A14.33,14.33,0,0,1,152.84,82m-18.59-14.9a27.8,27.8,0,0,1-8.44,2.22,1.39,1.39,0,0,0-.62,2.53A29,29,0,0,1,130.73,77a.1.1,0,0,1-.08.16h0c-3.87-.12-11.14-1.25-16.33-7.45a.1.1,0,0,1,0-.13,13.12,13.12,0,0,1,4.46-2.72c4.14-1.56,9.49-1.53,15.45.09a.09.09,0,0,1,.07.08.1.1,0,0,1-.06.1M116.9,64.23A24.22,24.22,0,0,1,109,68.08a1.39,1.39,0,0,0-.08,2.63,24.6,24.6,0,0,1,6.27,3.67.09.09,0,0,1,0,.1.1.1,0,0,1-.08.07c-1,.09-2.15.17-3.46.17-4.18,0-9.66-.75-13.9-4a.1.1,0,0,1,0-.13,13,13,0,0,1,3.8-3.55c3.77-2.39,9.07-3.42,15.32-3a.1.1,0,0,1,.05.17m-17.84.29A19.07,19.07,0,0,1,91.9,70a1.39,1.39,0,0,0,.36,2.61,30.1,30.1,0,0,1,6.92,2.32.1.1,0,0,1,.05.09.1.1,0,0,1-.07.08,33.16,33.16,0,0,1-4.6,1.16,27.85,27.85,0,0,1-4.8.43A19.77,19.77,0,0,1,81.46,75a.1.1,0,0,1,0-.13,12.86,12.86,0,0,1,2.92-4.27c3.22-3.19,8.27-5.34,14.63-6.23a.1.1,0,0,1,.1,0,.1.1,0,0,1,0,.11m-16.69,3a22.54,22.54,0,0,1-6.27,8A1.39,1.39,0,0,0,77,77.91h0a28.42,28.42,0,0,1,3.55.25,24.35,24.35,0,0,1,3.74.78.1.1,0,0,1,.07.08.1.1,0,0,1-.06.1A35.58,35.58,0,0,1,79.89,81a25.67,25.67,0,0,1-8.38,1.52,17.85,17.85,0,0,1-4.94-.66.1.1,0,0,1-.07-.11c.59-2.92,3.31-10.19,15.74-14.4a.1.1,0,0,1,.1,0,.09.09,0,0,1,0,.1m124,71.66a.1.1,0,0,1,.1,0,.09.09,0,0,1,.08.06,32.59,32.59,0,0,1,1.63,8.77,21.87,21.87,0,0,1-1.05,7.77,16.79,16.79,0,0,1-2.87,5.29.1.1,0,0,1-.08,0l-.05,0A20.71,20.71,0,0,1,196,150.62a31.4,31.4,0,0,1-1.38-4.53.1.1,0,0,1,.15-.11,29.68,29.68,0,0,1,5.7,4.64,1.39,1.39,0,0,0,2.41-.85,22.13,22.13,0,0,1,3.44-10.64m-9.77-3.44a1.39,1.39,0,0,0,.79-1.31,22.07,22.07,0,0,1,2.31-10.93.08.08,0,0,1,.09-.05.1.1,0,0,1,.09.06,32.67,32.67,0,0,1,2.53,8.56,21.93,21.93,0,0,1-.24,7.84,16.73,16.73,0,0,1-2.3,5.55.09.09,0,0,1-.08,0h0a20.79,20.79,0,0,1-9.1-9.52,31.5,31.5,0,0,1-1.85-4.36.1.1,0,0,1,0-.1.1.1,0,0,1,.11,0,29.71,29.71,0,0,1,6.15,4A1.39,1.39,0,0,0,196.57,135.7Zm-7-14.37h0a1.4,1.4,0,0,0,.68-1.42,22,22,0,0,1,1-11.11.1.1,0,0,1,.08-.06.1.1,0,0,1,.09,0A32.88,32.88,0,0,1,195,117a21.88,21.88,0,0,1,.69,7.81,16.67,16.67,0,0,1-1.63,5.77.1.1,0,0,1-.09.05h0a20.5,20.5,0,0,1-10.44-8.5,27.46,27.46,0,0,1-2.28-4.28.09.09,0,0,1,0-.1.09.09,0,0,1,.1,0,22.24,22.24,0,0,1,6.72,3.48,1.4,1.4,0,0,0,1.57.12M179.19,108a1.39,1.39,0,0,0,2.13-1.55,24.46,24.46,0,0,1-.7-11,.1.1,0,0,1,.17,0,33,33,0,0,1,4.7,7.42,22,22,0,0,1,1.94,7.6,16.45,16.45,0,0,1-.68,5.94.1.1,0,0,1-.09.07h0a21,21,0,0,1-11.4-6.71,31.8,31.8,0,0,1-3.19-4,.09.09,0,0,1,0-.1.09.09,0,0,1,.09,0,15.78,15.78,0,0,1,7,2.43m-10.4-11.9a1.39,1.39,0,0,0,1.74-1.94A22,22,0,0,1,168,83.32a.1.1,0,0,1,.06-.09.1.1,0,0,1,.1,0,32.62,32.62,0,0,1,5.79,6.59,22.87,22.87,0,0,1,3.15,7.23,17.85,17.85,0,0,1,.39,6.11.1.1,0,0,1-.09.09h-.24c-4.63,0-8.9-2.53-11.68-4.67a36,36,0,0,1-4-3.6.1.1,0,0,1,0-.1.09.09,0,0,1,.09-.06H162a21.4,21.4,0,0,1,6.77,1.26m-4.12-10.82a18.33,18.33,0,0,1,1.2,6.78.1.1,0,0,1-.09.1l-.74,0c-5.72,0-12.36-3.83-15.9-6.19a.1.1,0,0,1,0-.18,19.1,19.1,0,0,1,7.1.11,1.39,1.39,0,0,0,1.41-2.22,28.5,28.5,0,0,1-4.42-8.32.1.1,0,0,1,0-.1.1.1,0,0,1,.1,0c5.62,1.87,9.42,5.24,11.28,10m-106.52-16a28.05,28.05,0,0,1,3.6-1.55A77.27,77.27,0,0,1,70,65.41a21.93,21.93,0,0,0,6.3-2.48.55.55,0,0,0-.22-1L56.9,59.12,76,56.31a.55.55,0,0,0,0-1.1A32,32,0,0,1,68.66,53c-1.09-.49-2-1-2.91-1.48a21.56,21.56,0,0,0-7.56-2.8,27.66,27.66,0,0,1,3.92,0,77.81,77.81,0,0,1,8.47,1,21.89,21.89,0,0,0,6.77.13.56.56,0,0,0,.19-1L60.92,38.87l18.77,4.7a.55.55,0,0,0,.42-1,31.84,31.84,0,0,1-6-4.9c-.82-.87-1.48-1.69-2.12-2.49a21.44,21.44,0,0,0-5.9-5.48,27.74,27.74,0,0,1,3.64,1.46,76.85,76.85,0,0,1,7.44,4.17A21.79,21.79,0,0,0,83.42,38a.55.55,0,0,0,.57-.87L72.4,21.69,87.95,33.2a.56.56,0,0,0,.78-.78,31.62,31.62,0,0,1-3.62-6.81c-.42-1.12-.72-2.13-1-3.11a21.41,21.41,0,0,0-3.35-7.33,27.75,27.75,0,0,1,2.8,2.74,77.78,77.78,0,0,1,5.27,6.71,21.87,21.87,0,0,0,4.69,4.89.55.55,0,0,0,.86-.59l-4.81-18.7,10,16.57a.55.55,0,0,0,1-.42,31.76,31.76,0,0,1-.73-7.68c0-1.19.15-2.24.26-3.26a21.42,21.42,0,0,0-.29-8.05,27.46,27.46,0,0,1,1.54,3.6,77.54,77.54,0,0,1,2.3,8.22,21.77,21.77,0,0,0,2.47,6.31.55.55,0,0,0,1-.21l2.69-19,2.79,19a.55.55,0,0,0,1.1,0,31.83,31.83,0,0,1,2.24-7.38c.49-1.09,1-2,1.48-2.92a21.43,21.43,0,0,0,2.79-7.56,27.62,27.62,0,0,1,.05,3.92,77.5,77.5,0,0,1-1,8.48,21.79,21.79,0,0,0-.12,6.77.56.56,0,0,0,1,.19l9.89-16.6-4.72,18.73a.56.56,0,0,0,1,.42,31.68,31.68,0,0,1,4.9-6c.87-.82,1.69-1.49,2.48-2.13a21.44,21.44,0,0,0,5.48-5.91A28.22,28.22,0,0,1,137.76,19a77.58,77.58,0,0,1-4.17,7.45,21.82,21.82,0,0,0-2.71,6.21.55.55,0,0,0,.87.57l15.47-11.56L135.72,37.2a.55.55,0,0,0,.77.77,31.91,31.91,0,0,1,6.81-3.62c1.12-.42,2.13-.72,3.11-1A21.43,21.43,0,0,0,153.73,30a27.68,27.68,0,0,1-2.74,2.8,77.27,77.27,0,0,1-6.71,5.28,21.9,21.9,0,0,0-4.88,4.7.55.55,0,0,0,.59.86l18.71-4.77-16.57,9.94a.55.55,0,0,0,.42,1,31.62,31.62,0,0,1,7.68-.74c1.19,0,2.24.15,3.26.26a21.5,21.5,0,0,0,8-.29,28.17,28.17,0,0,1-3.6,1.54,77,77,0,0,1-8.22,2.3,21.91,21.91,0,0,0-6.31,2.47.56.56,0,0,0,.21,1l19.11,2.74L143.62,62a.56.56,0,0,0,0,1.1A31.72,31.72,0,0,1,151,65.32c1.09.5,2,1,2.91,1.49a21.46,21.46,0,0,0,7.54,2.82,27.9,27.9,0,0,1-3.91,0,78,78,0,0,1-8.47-1l-.48-.08a22.71,22.71,0,0,0-9.33-2,1.5,1.5,0,0,0,0-.39,1.49,1.49,0,0,0-1-1.08,41.48,41.48,0,0,0-10.07-2.25l-.47,0-.3,0-.51,0h-.25l-.74,0a25.12,25.12,0,0,0-4.38.35V63a1.51,1.51,0,0,0-.1-.61l0-.12a1.5,1.5,0,0,0-1.14-.82l-.91-.11-.3,0-.6-.06-.35,0-.54,0a36.36,36.36,0,0,0-9.87.46q-1.24.24-2.39.59l-.16,0-.39.12-.15.05-.51.17c-.38.14-.75.28-1.12.43a.22.22,0,0,0,0-.06v0l0-.13h0v0a1.49,1.49,0,0,0-.38-1.24h0l-.11-.1,0,0a1.49,1.49,0,0,0-1.08-.34A38.78,38.78,0,0,0,89.16,64a25.32,25.32,0,0,0-3.26,1.7c0-.22,0-.36.05-.41h0a1.49,1.49,0,0,0-.54-1.25L85.29,64l0,0-.1-.06,0,0a1.49,1.49,0,0,0-1-.09A38,38,0,0,0,72.44,69l-.28.2c-.85.06-1.76.08-2.71.05-.72,0-3.06-.23-3.26-.25a21.5,21.5,0,0,0-8,.31m7.34,3.9a.09.09,0,0,1,.1,0,.09.09,0,0,1,.05.09A22,22,0,0,1,62,83.82a1.39,1.39,0,0,0,1.44,2.12,29.83,29.83,0,0,1,7.16-.43.09.09,0,0,1,.09.07.1.1,0,0,1,0,.11c-3.1,2.47-9.17,6.51-15.67,6.51l-.7,0a.1.1,0,0,1-.09-.09c-.17-3.12.58-11.22,11.27-18.9m-22.63,24A22,22,0,0,1,46,90a33.09,33.09,0,0,1,6-6.72.1.1,0,0,1,.1,0,.1.1,0,0,1,.06.09,22,22,0,0,1-2.58,10.86,1.39,1.39,0,0,0,1.68,2,27.78,27.78,0,0,1,7-1.26.11.11,0,0,1,.09.06.1.1,0,0,1,0,.11,44.49,44.49,0,0,1-4.11,3.61c-2.83,2.18-7,4.71-11,4.71h-.48a.09.09,0,0,1-.09-.08,16.4,16.4,0,0,1,.26-6.09M39.2,95.24a.1.1,0,0,1,.1,0,.1.1,0,0,1,.07.08,21.89,21.89,0,0,1-.81,11.13A1.39,1.39,0,0,0,40.67,108a16.07,16.07,0,0,1,6.95-2.41.09.09,0,0,1,.09,0,.1.1,0,0,1,0,.11c-2.51,3.51-7.73,9.58-14.46,10.71h0a.09.09,0,0,1-.09-.07c-1-3-2.35-11,6.07-21.14M24.7,117a32.81,32.81,0,0,1,3.87-8.07.1.1,0,0,1,.17,0,22,22,0,0,1,.54,11.16,1.39,1.39,0,0,0,2.34,1.26A13.45,13.45,0,0,1,38.4,118a.1.1,0,0,1,.09,0,.1.1,0,0,1,0,.1,30.63,30.63,0,0,1-2.73,4.55,20.17,20.17,0,0,1-10.57,7.93h0a.1.1,0,0,1-.09-.05,16.76,16.76,0,0,1-1.4-5.85,21.91,21.91,0,0,1,1-7.77m-7.83,15a32.63,32.63,0,0,1,2.61-8.55.09.09,0,0,1,.09-.06h0a.09.09,0,0,1,.09.05,22,22,0,0,1,2.21,11,1.39,1.39,0,0,0,2.3,1.11,28.62,28.62,0,0,1,6.51-4.12.1.1,0,0,1,.1,0,.09.09,0,0,1,0,.1,21,21,0,0,1-1.5,4.08,21.29,21.29,0,0,1-9.91,9.82h0a.09.09,0,0,1-.08,0A16.61,16.61,0,0,1,17,139.81a21.94,21.94,0,0,1-.17-7.84m-5.75,15.84A32.71,32.71,0,0,1,12.63,139a.1.1,0,0,1,.08-.07.09.09,0,0,1,.1,0,22,22,0,0,1,3.58,10.6,1.39,1.39,0,0,0,2.45.78,24.81,24.81,0,0,1,5.93-4.92.1.1,0,0,1,.1,0,.1.1,0,0,1,0,.09,21.72,21.72,0,0,1-1,4.36,20,20,0,0,1-8.61,10.94l-.05,0a.11.11,0,0,1-.08,0,16.83,16.83,0,0,1-2.94-5.25,21.94,21.94,0,0,1-1.16-7.75M7.83,155.3a.09.09,0,0,1,.07-.08.1.1,0,0,1,.1,0,22.16,22.16,0,0,1,4.87,10.07,1.39,1.39,0,0,0,2.5.51,28.88,28.88,0,0,1,5.14-5.48.1.1,0,0,1,.11,0,.09.09,0,0,1,.05.09,25.34,25.34,0,0,1-.6,4.34,22,22,0,0,1-6.87,11.8l-.07,0-.06,0a16.68,16.68,0,0,1-3.54-4.82,22,22,0,0,1-2.11-7.56,32.61,32.61,0,0,1,.41-8.91M5.37,171.64a.1.1,0,0,1,.07-.08.1.1,0,0,1,.1,0,22.15,22.15,0,0,1,5.34,9.84,1.39,1.39,0,0,0,2.6.25,20.47,20.47,0,0,1,4.33-5.7.09.09,0,0,1,.1,0,.1.1,0,0,1,.06.09,30.83,30.83,0,0,1-.4,4.91c-.83,5-2.77,8.93-5.8,11.73a.11.11,0,0,1-.07,0l-.06,0A16.78,16.78,0,0,1,7.85,188a22,22,0,0,1-2.46-7.45,32.6,32.6,0,0,1,0-8.91M4,188.81a.1.1,0,0,1,.16-.07c.35.33.7.68,1,1a22.68,22.68,0,0,1,4.91,8.47,1.39,1.39,0,0,0,2.69-.2,12,12,0,0,1,3.55-6.17.1.1,0,0,1,.1,0,.1.1,0,0,1,.06.08,25.51,25.51,0,0,1,0,8.11,16.55,16.55,0,0,1-4.78,9.42.09.09,0,0,1-.07,0l-.06,0C9.08,207.62,3.2,201.91,4,188.81m-.67,16.67a.1.1,0,0,1,.11,0c.39.29.77.6,1.14.92a22.75,22.75,0,0,1,5.78,7.91,1.38,1.38,0,0,0,1.26.82h0a1.39,1.39,0,0,0,1.27-.86,28.46,28.46,0,0,1,4-6.57.09.09,0,0,1,.1,0,.1.1,0,0,1,.07.07,21.41,21.41,0,0,1-3.94,17.48.1.1,0,0,1-.08,0h0c-2.73-1.58-9.13-6.68-9.7-19.7a.1.1,0,0,1,.05-.09m.86,17.34a.1.1,0,0,1,0-.1.1.1,0,0,1,.1,0,22.35,22.35,0,0,1,8.36,7.52,1.39,1.39,0,0,0,2.51-.48l.09,0-.09,0A28.37,28.37,0,0,1,18,222.48a.09.09,0,0,1,.09,0,.1.1,0,0,1,.08.05,19.89,19.89,0,0,1,1.5,4.43,18.59,18.59,0,0,1-2.32,13.64.09.09,0,0,1-.08,0h0a17,17,0,0,1-5.2-3.17,22.13,22.13,0,0,1-4.85-6.21,32.75,32.75,0,0,1-3-8.39m3.93,16.09a.1.1,0,0,1,0-.1.1.1,0,0,1,.1,0c.44.18.89.39,1.33.61a23,23,0,0,1,7.57,6.28,1.39,1.39,0,0,0,2.47-.66,28.92,28.92,0,0,1,2.14-7.18.1.1,0,0,1,.09-.05.1.1,0,0,1,.09.06c1.63,3.57,3.88,10.62.65,17.77a.1.1,0,0,1-.09.06h0c-3-.87-10.55-4.24-14.35-16.76m9.7,23.84a33,33,0,0,1-4.57-7.67.1.1,0,0,1,0-.1.1.1,0,0,1,.1,0c.46.13.92.29,1.39.46A23,23,0,0,1,23,260.79a1.39,1.39,0,0,0,2.37-.95,28.91,28.91,0,0,1,1.26-7.28.1.1,0,0,1,.08-.07.1.1,0,0,1,.09,0,29,29,0,0,1,2,4.27A20.33,20.33,0,0,1,29.56,270a.1.1,0,0,1-.09.07h0A17.22,17.22,0,0,1,23.78,268a22.4,22.4,0,0,1-5.94-5.21m2.36,7.63a.1.1,0,0,1,0-.1.1.1,0,0,1,.1,0,22.61,22.61,0,0,1,10.26,4.69,1.39,1.39,0,0,0,2.25-1.25,25.26,25.26,0,0,1,.36-7.2.1.1,0,0,1,.08-.08.1.1,0,0,1,.1,0,33.38,33.38,0,0,1,2.45,4.15c1.54,3.11,3.2,7.85,2.35,12.77a.1.1,0,0,1-.1.08h0A17,17,0,0,1,32.15,282a22.47,22.47,0,0,1-6.52-4.49,33.12,33.12,0,0,1-5.44-7.09m32,27.84a26.64,26.64,0,0,1-1.71-7,.1.1,0,0,1,.05-.1.09.09,0,0,1,.11,0c3.24,2.71,8.63,8.38,8.29,15.86a.1.1,0,0,1-.08.09,12.8,12.8,0,0,1-2.17.17,16.85,16.85,0,0,1-3.3-.34c-4.66-.94-9.44-3.68-14.22-8.15a.1.1,0,0,1,0-.1.09.09,0,0,1,.08-.06,22.72,22.72,0,0,1,11.2,1.49,1.39,1.39,0,0,0,1.79-1.82m-12.61-10a1.39,1.39,0,0,0,2.09-1.52,22.83,22.83,0,0,1-.45-7.14.09.09,0,0,1,.07-.08.1.1,0,0,1,.1,0c2.65,3.2,7,9.56,6.62,16.3a.1.1,0,0,1-.09.09h-.66a17.42,17.42,0,0,1-5.34-.88,22.48,22.48,0,0,1-7-3.79,33.16,33.16,0,0,1-6.16-6.49.1.1,0,0,1,0-.1.08.08,0,0,1,.09-.05,22.68,22.68,0,0,1,10.69,3.61m39.87-33.53c-.37,0-.77-.06-1.18-.13-1.41-.23-2.43-.69-2.66-1.22-.11-.26-.45-1,.51-2.28,1.42-1.86,4.69-3.35,6.73-3l.18,0a6.21,6.21,0,0,1,1.26.26c-.55.45-1,.89-1.42,1.27a11.2,11.2,0,0,0-3.42,5.14m7.87,4.8a9.45,9.45,0,0,1-1.33-.33c-2.37-.78-2.54-2-2.59-2.54-.07-1.26.57-2.36,2.35-4.07,2.83-2.72,5-3.54,7-2.58a2.75,2.75,0,0,1,1.42,1.29,1.23,1.23,0,0,1,0,.64c-.48.32-.93.64-1.36.93-3,2.12-4.85,4.35-5.46,6.65m9.62,3.95c-1.42.24-3.69.39-4.88-.43a1.86,1.86,0,0,1-.8-1.49c-.21-2.05,2.36-4.19,3.91-5.27,3.65-2.56,5.59-3.43,7.42-1.84a1.76,1.76,0,0,1,.78,1.29,4.12,4.12,0,0,1-1.63,2.28,13.31,13.31,0,0,0-4.81,5.46M111,261.07c-.11,1-1.47,2.2-2.12,2.61h0l-.15.1h0c-.92.71-4,2.65-6.29,2.2a2.79,2.79,0,0,1-1.64-1c1-2.21,3.28-3.68,5.37-4.9,2.71-1.57,3.94-.67,4.06-.58.85.82.8,1.34.78,1.51m32.6-9.63a4.83,4.83,0,0,1-3.36,1.09c-1.75-2.36-6.86-8.73-13.34-11.9a2.08,2.08,0,0,0-1.83,3.74c5.61,2.74,10.26,8.54,11.81,10.62a4.69,4.69,0,0,1-4.92,2.79,19.32,19.32,0,0,0-3.12-4.54,41.84,41.84,0,0,0-6.07-5.16,2.08,2.08,0,0,0-2.39,3.4,37.38,37.38,0,0,1,5.32,4.48,14.88,14.88,0,0,1,2.49,3.57,5.87,5.87,0,0,1-1.15,1.62,3.84,3.84,0,0,1-3.41,1,25.29,25.29,0,0,0-4.24-6.46,2.08,2.08,0,0,0-3.11,2.76,21.89,21.89,0,0,1,3.32,4.88,7.7,7.7,0,0,1-1.43.75,8,8,0,0,1-4.23.42,6.39,6.39,0,0,0,1.2-3,5.86,5.86,0,0,0-2-4.93,6.22,6.22,0,0,0-5.62-1.39,5.85,5.85,0,0,0-2.2-3.93,7,7,0,0,0-7.06-1.45l-.21.07a6.51,6.51,0,0,0-3.48-3.63,7.84,7.84,0,0,0-6.15-.38,9.24,9.24,0,0,0-5.05-2c-3-.41-7,1.1-9.51,3.49-13.35,7.14-30.53,14.87-37.39,17.9a133.17,133.17,0,0,1-9.31-22.12q-1.07-3.32-2-6.71c19.56-2.24,35.28-4.53,46.73-6.82,11.93-2.39,19.61-4.81,23.49-7.41l0,0c4.6-3.25,7.75-4.82,12.16-4.45,1.41.12,2.64.27,3.74.44a12.29,12.29,0,0,0-3.17,1.62c-1.81,1.28-2.94,2.19-3.92,3a32.29,32.29,0,0,1-3.08,2.29,33.14,33.14,0,0,1-3.22,1.72c-2.66,1.3-4.76,2.33-5.41,4.06v0a5.41,5.41,0,0,0,.89,5.41c2,2.8,5.29,2.62,7.94,2.47a22.71,22.71,0,0,0,9.32-2.81c1-.56,1.81-1.12,2.56-1.61a11,11,0,0,1,3-1.62l.12,0c2.39-.66,5.09-.38,8.25.83a45.87,45.87,0,0,1,8.16,4.46,54,54,0,0,1,12,11.06,4.1,4.1,0,0,1-1.14,2.36m8.1-1.77h0a23.47,23.47,0,0,1-4.07-3.64h0l-.1-.12-.34-.41a57.23,57.23,0,0,0-12.2-11c-4.24-2.76-12.13-7.89-19.72-5.83a13.38,13.38,0,0,0-4.33,2.2c-.73.48-1.49,1-2.35,1.48a18.51,18.51,0,0,1-7.47,2.26c-2.27.13-3.7.14-4.32-.73s-.53-1.08-.42-1.43a19,19,0,0,1,3.39-1.91,35.16,35.16,0,0,0,3.66-2,36.28,36.28,0,0,0,3.43-2.55c.94-.76,2-1.63,3.69-2.82,2.37-1.66,4.92-1.72,8.79-1.79l1.86,0h0l1.43-.05c4.15-.19,7.86,1.15,13.47,3.17,1.62.58,3.46,1.25,5.5,1.94h0c.07,0,7.61,2.41,18.07,4.9,9.11,2.17,22.28,4.84,34.59,5.63q-.85,3.11-1.83,6.17A133,133,0,0,1,182.77,266c-6.4-2.62-21.24-9.07-31.07-16.35m28.85,49.07c-5.94,5.56-11,7.5-14.22,8.15a16.87,16.87,0,0,1-3.31.34,12.81,12.81,0,0,1-2.17-.17.1.1,0,0,1-.08-.09c-.19-4.23,1.42-8.37,4.81-12.3a29,29,0,0,1,3.56-3.46.1.1,0,0,1,.11,0,.1.1,0,0,1,0,.1,29.32,29.32,0,0,1-1.78,6.95,1.39,1.39,0,0,0,1.79,1.82,22.81,22.81,0,0,1,11.19-1.49.1.1,0,0,1,.08.07.09.09,0,0,1,0,.1m10.5-14a33.16,33.16,0,0,1-6.15,6.48,22.5,22.5,0,0,1-7,3.79,17.57,17.57,0,0,1-5.35.88l-.66,0a.1.1,0,0,1-.09-.09c-.29-4.08.95-8.31,3.67-12.56a31.59,31.59,0,0,1,2.89-3.82.1.1,0,0,1,.17.06,28.79,28.79,0,0,1-.39,7.27,1.39,1.39,0,0,0,2.11,1.45,22.74,22.74,0,0,1,10.68-3.6.1.1,0,0,1,.08.15m8.61-14.38a33.11,33.11,0,0,1-5.43,7.08,22.46,22.46,0,0,1-6.52,4.49,17.17,17.17,0,0,1-5.88,1.48h0a.09.09,0,0,1-.09-.08c-.72-4,.06-8.36,2.32-12.87a31.3,31.3,0,0,1,2.47-4.09.09.09,0,0,1,.1,0,.1.1,0,0,1,.08.07,29.21,29.21,0,0,1,.38,7.28,1.39,1.39,0,0,0,2.25,1.22,22.72,22.72,0,0,1,10.25-4.68.1.1,0,0,1,.1.14m6.92-15.75a33.07,33.07,0,0,1-4.66,7.89,22.44,22.44,0,0,1-5.95,5.21,16.93,16.93,0,0,1-5.66,2.14h0a.09.09,0,0,1-.09-.07,20.84,20.84,0,0,1,.77-13.24,28.4,28.4,0,0,1,1.92-4.15.09.09,0,0,1,.09-.05.1.1,0,0,1,.08.07,32.25,32.25,0,0,1,1.29,7.21,1.39,1.39,0,0,0,2.41.88,20.13,20.13,0,0,1,8.21-5.59,15.17,15.17,0,0,1,1.49-.43.1.1,0,0,1,.1,0,.09.09,0,0,1,0,.1m5-15.82a32.84,32.84,0,0,1-3.77,8.08,22.32,22.32,0,0,1-5.39,5.76,17.23,17.23,0,0,1-5.43,2.69h0a.1.1,0,0,1-.09-.06c-2-4.76-1.4-9.87-.57-13.31a33.35,33.35,0,0,1,1.49-4.64.09.09,0,0,1,.09-.06.1.1,0,0,1,.09.06,31.82,31.82,0,0,1,2,7.41,1.39,1.39,0,0,0,2.45.7,22.51,22.51,0,0,1,9-6.74.1.1,0,0,1,.1,0,.1.1,0,0,1,0,.1m.54-8.22a22.21,22.21,0,0,1-4.63,6.37,16.87,16.87,0,0,1-5,3.33h0a.09.09,0,0,1-.08-.05A21.58,21.58,0,0,1,200,226.88a30.85,30.85,0,0,1,.95-4.7.1.1,0,0,1,.08-.07.09.09,0,0,1,.1,0,32,32,0,0,1,2.92,7.26,1.39,1.39,0,0,0,2.53.4,22.44,22.44,0,0,1,8.1-7.79.1.1,0,0,1,.1,0,.1.1,0,0,1,0,.1,32.8,32.8,0,0,1-2.74,8.48m2.46-16.53a22,22,0,0,1-3.88,6.83,16.84,16.84,0,0,1-4.64,3.85h0a.1.1,0,0,1-.08,0A20.33,20.33,0,0,1,202.17,212a27.8,27.8,0,0,1,.51-4.79.09.09,0,0,1,.07-.08.1.1,0,0,1,.1,0,24.56,24.56,0,0,1,3.59,6.59,1.39,1.39,0,0,0,2.57.15,22.23,22.23,0,0,1,7.16-8.61.1.1,0,0,1,.16.08,32.72,32.72,0,0,1-1.76,8.73"/><path class="cls-7" d="M180.5,298.57a22.78,22.78,0,0,0-11.19,1.49,1.39,1.39,0,0,1-1.79-1.83,29.16,29.16,0,0,0,1.78-6.95.1.1,0,0,0,0-.1.1.1,0,0,0-.11,0,28.83,28.83,0,0,0-3.55,3.46c-3.38,3.93-5,8.07-4.81,12.3a.1.1,0,0,0,.08.09,12.77,12.77,0,0,0,2.17.17,16.89,16.89,0,0,0,3.31-.34c3.21-.65,8.28-2.58,14.22-8.15a.09.09,0,0,0,0-.1.1.1,0,0,0-.08-.07"/><path class="cls-7" d="M50.65,291.1a.1.1,0,0,0-.11,0,.1.1,0,0,0-.05.1,26.62,26.62,0,0,0,1.7,7,1.39,1.39,0,0,1-1.79,1.83,22.71,22.71,0,0,0-11.2-1.5.1.1,0,0,0-.08.07.1.1,0,0,0,0,.1c4.78,4.47,9.57,7.22,14.23,8.15a16.84,16.84,0,0,0,3.3.34,12.56,12.56,0,0,0,2.17-.17.09.09,0,0,0,.08-.09c.34-7.48-5-13.14-8.29-15.86"/><path class="cls-7" d="M191,284.62a22.78,22.78,0,0,0-10.68,3.6,1.39,1.39,0,0,1-2.11-1.45,28.57,28.57,0,0,0,.39-7.27.1.1,0,0,0-.17-.06,31.44,31.44,0,0,0-2.89,3.82c-2.72,4.25-4,8.47-3.67,12.56a.09.09,0,0,0,.09.09l.66,0a17.5,17.5,0,0,0,5.35-.88,22.5,22.5,0,0,0,7-3.79,33.2,33.2,0,0,0,6.15-6.48.1.1,0,0,0-.08-.15"/><path class="cls-7" d="M199.56,270.25a22.67,22.67,0,0,0-10.25,4.68,1.39,1.39,0,0,1-2.25-1.22,29.07,29.07,0,0,0-.38-7.28.1.1,0,0,0-.08-.08.1.1,0,0,0-.1,0,31.3,31.3,0,0,0-2.47,4.09c-2.26,4.51-3,8.84-2.32,12.88a.1.1,0,0,0,.09.08h0a17.26,17.26,0,0,0,5.89-1.48,22.4,22.4,0,0,0,6.52-4.49,33.08,33.08,0,0,0,5.43-7.08.1.1,0,0,0,0-.11.1.1,0,0,0-.1,0"/><path class="cls-7" d="M206.47,254.52a15.17,15.17,0,0,0-1.49.43,20.12,20.12,0,0,0-8.21,5.59,1.39,1.39,0,0,1-2.41-.88,32.21,32.21,0,0,0-1.29-7.21.09.09,0,0,0-.08-.07.09.09,0,0,0-.09.05,28.4,28.4,0,0,0-1.92,4.15,20.84,20.84,0,0,0-.77,13.24.1.1,0,0,0,.09.07h0a16.94,16.94,0,0,0,5.66-2.14,22.45,22.45,0,0,0,5.95-5.21,33.14,33.14,0,0,0,4.66-7.89.09.09,0,0,0,0-.1.09.09,0,0,0-.1,0"/><path class="cls-7" d="M211.45,238.72a22.51,22.51,0,0,0-9,6.74,1.39,1.39,0,0,1-2.46-.7,31.61,31.61,0,0,0-2-7.41.09.09,0,0,0-.09-.06h0a.09.09,0,0,0-.09.06A33,33,0,0,0,196.3,242c-.83,3.44-1.4,8.55.57,13.31a.1.1,0,0,0,.09.06h0a17.24,17.24,0,0,0,5.43-2.69,22.27,22.27,0,0,0,5.39-5.76,32.74,32.74,0,0,0,3.77-8.07.1.1,0,0,0,0-.1.1.1,0,0,0-.1,0"/><path class="cls-7" d="M214.71,222a22.44,22.44,0,0,0-8.1,7.79,1.39,1.39,0,0,1-2.53-.4,32,32,0,0,0-2.92-7.26.1.1,0,0,0-.1,0,.1.1,0,0,0-.08.07,30.69,30.69,0,0,0-.95,4.7,21.58,21.58,0,0,0,2.28,13.39.1.1,0,0,0,.09,0h0a16.84,16.84,0,0,0,5-3.33,22.12,22.12,0,0,0,4.63-6.37,32.62,32.62,0,0,0,2.74-8.48.09.09,0,0,0,0-.1.1.1,0,0,0-.11,0"/><path class="cls-7" d="M209,213.88a1.39,1.39,0,0,1-2.57-.16,24.57,24.57,0,0,0-3.59-6.59.1.1,0,0,0-.1,0,.09.09,0,0,0-.07.08,28,28,0,0,0-.51,4.79,20.32,20.32,0,0,0,3.75,12.77.09.09,0,0,0,.08,0h0a16.9,16.9,0,0,0,4.64-3.85,22,22,0,0,0,3.88-6.83,32.6,32.6,0,0,0,1.76-8.73.1.1,0,0,0-.05-.09.1.1,0,0,0-.1,0,22.22,22.22,0,0,0-7.17,8.61"/><path class="cls-7" d="M208.43,198.73a1.37,1.37,0,0,1-1.32-.77,29.31,29.31,0,0,0-4.1-6,.1.1,0,0,0-.11,0,.1.1,0,0,0-.06.09c-.15,4.09.28,11.72,4.83,16.87a.1.1,0,0,0,.07,0l.05,0a16.84,16.84,0,0,0,4.23-4.28,22,22,0,0,0,3.18-7.17,32.61,32.61,0,0,0,.89-8.87.1.1,0,0,0-.06-.09.1.1,0,0,0-.1,0,22.15,22.15,0,0,0-6.28,9.26,1.39,1.39,0,0,1-1.23.91"/><path class="cls-7" d="M207.65,182.46a1.39,1.39,0,0,1-1.39-.64,29.43,29.43,0,0,0-4.53-5.4.11.11,0,0,0-.11,0,.1.1,0,0,0-.05.1c.41,4.47,1.77,12.52,6.26,16.24l.06,0,.06,0a16.74,16.74,0,0,0,3.86-4.74,22,22,0,0,0,2.46-7.45,32.62,32.62,0,0,0,0-8.91.1.1,0,0,0-.06-.08.09.09,0,0,0-.1,0,22.16,22.16,0,0,0-5.34,9.84,1.39,1.39,0,0,1-1.13,1"/><path class="cls-7" d="M205.5,166.62a1.39,1.39,0,0,1-1.42-.57,29.29,29.29,0,0,0-4.94-5.32.09.09,0,0,0-.11,0,.1.1,0,0,0-.05.09,34.35,34.35,0,0,0,.82,4.73c.84,3.39,2.64,8.09,6.41,11.28l.06,0a.1.1,0,0,0,.07,0,16.82,16.82,0,0,0,3.57-4.85,21.92,21.92,0,0,0,2.11-7.56,32.62,32.62,0,0,0-.4-8.9.1.1,0,0,0-.07-.08.1.1,0,0,0-.1,0,22.18,22.18,0,0,0-4.87,10.08,1.38,1.38,0,0,1-1.08,1.08"/><path class="cls-7" d="M202,151a1.39,1.39,0,0,1-1.49-.37,29.53,29.53,0,0,0-5.7-4.64.11.11,0,0,0-.11,0,.1.1,0,0,0,0,.1,31.4,31.4,0,0,0,1.38,4.53A20.72,20.72,0,0,0,204.09,161l.05,0a.1.1,0,0,0,.08,0,16.8,16.8,0,0,0,2.87-5.29,21.84,21.84,0,0,0,1.05-7.77,32.6,32.6,0,0,0-1.63-8.77.1.1,0,0,0-.18,0,22.07,22.07,0,0,0-3.43,10.64A1.39,1.39,0,0,1,202,151"/><path class="cls-7" d="M195.05,135.48a29.76,29.76,0,0,0-6.15-4,.1.1,0,0,0-.11,0,.09.09,0,0,0,0,.1,31.51,31.51,0,0,0,1.85,4.36,20.78,20.78,0,0,0,9.1,9.52h0a.09.09,0,0,0,.08,0,16.72,16.72,0,0,0,2.3-5.55,21.92,21.92,0,0,0,.24-7.84,32.55,32.55,0,0,0-2.53-8.56.1.1,0,0,0-.09-.06.08.08,0,0,0-.09.05,22.06,22.06,0,0,0-2.31,10.93,1.39,1.39,0,0,1-2.31,1.09"/><path class="cls-7" d="M181.23,117.76a.1.1,0,0,0,0,.1,27.59,27.59,0,0,0,2.28,4.28,20.5,20.5,0,0,0,10.44,8.5h0a.1.1,0,0,0,.09-.06,16.6,16.6,0,0,0,1.63-5.76A21.9,21.9,0,0,0,195,117a32.82,32.82,0,0,0-3.52-8.23.1.1,0,0,0-.17,0,22,22,0,0,0-1,11.11,1.39,1.39,0,0,1-2.24,1.3,22.27,22.27,0,0,0-6.72-3.48.09.09,0,0,0-.1,0"/><path class="cls-7" d="M172.06,105.61a.1.1,0,0,0,0,.1,31.49,31.49,0,0,0,3.19,4,21,21,0,0,0,11.4,6.71h0a.1.1,0,0,0,.09-.07,16.4,16.4,0,0,0,.67-5.94,21.94,21.94,0,0,0-1.94-7.6,32.8,32.8,0,0,0-4.7-7.42.09.09,0,0,0-.1,0,.09.09,0,0,0-.07.08,24.42,24.42,0,0,0,.7,11,1.39,1.39,0,0,1-2.12,1.55,15.83,15.83,0,0,0-7.05-2.42.1.1,0,0,0-.09,0"/><path class="cls-7" d="M170.33,95.73a1.39,1.39,0,0,1-1.54.36A21.3,21.3,0,0,0,162,94.84h-.52a.1.1,0,0,0-.09.06.1.1,0,0,0,0,.1,36.53,36.53,0,0,0,4,3.6c2.78,2.14,7.05,4.67,11.69,4.67h.24a.1.1,0,0,0,.09-.08,17.83,17.83,0,0,0-.39-6.11,23,23,0,0,0-3.15-7.24,32.72,32.72,0,0,0-5.79-6.59.1.1,0,0,0-.1,0,.1.1,0,0,0-.06.09,22.05,22.05,0,0,0,2.57,10.84,1.39,1.39,0,0,1-.2,1.57"/><path class="cls-7" d="M47.26,295.93l.66,0a.09.09,0,0,0,.09-.09c.41-6.74-4-13.1-6.62-16.3a.1.1,0,0,0-.1,0,.1.1,0,0,0-.07.08,22.92,22.92,0,0,0,.45,7.14,1.39,1.39,0,0,1-2.09,1.51,22.66,22.66,0,0,0-10.69-3.61.08.08,0,0,0-.09,0,.09.09,0,0,0,0,.1A33.15,33.15,0,0,0,35,291.25a22.46,22.46,0,0,0,7,3.79,17.51,17.51,0,0,0,5.34.88"/><path class="cls-7" d="M38,283.45h0a.1.1,0,0,0,.1-.08c.84-4.92-.81-9.66-2.35-12.77a33.25,33.25,0,0,0-2.45-4.14.1.1,0,0,0-.17,0,25.29,25.29,0,0,0-.37,7.2,1.39,1.39,0,0,1-2.24,1.25,22.58,22.58,0,0,0-10.25-4.69.1.1,0,0,0-.1,0,.1.1,0,0,0,0,.11,33.17,33.17,0,0,0,5.44,7.09A22.41,22.41,0,0,0,32.15,282,17,17,0,0,0,38,283.45"/><path class="cls-7" d="M29.45,270.1h0a.1.1,0,0,0,.09-.07,20.31,20.31,0,0,0-.73-13.21,28.75,28.75,0,0,0-2-4.27.1.1,0,0,0-.09,0,.1.1,0,0,0-.08.07,28.65,28.65,0,0,0-1.26,7.28,1.39,1.39,0,0,1-2.37.95,23,23,0,0,0-8.25-5.38c-.46-.17-.93-.32-1.38-.46a.1.1,0,0,0-.1,0,.11.11,0,0,0,0,.1,32.9,32.9,0,0,0,4.57,7.67A22.35,22.35,0,0,0,23.78,268a17.2,17.2,0,0,0,5.67,2.14"/><path class="cls-7" d="M22.49,255.67h0a.1.1,0,0,0,.09-.06c3.23-7.15,1-14.21-.65-17.78a.09.09,0,0,0-.09-.05.1.1,0,0,0-.09.05A28.82,28.82,0,0,0,19.64,245a1.39,1.39,0,0,1-2.47.67,23,23,0,0,0-7.57-6.28c-.44-.22-.88-.43-1.33-.61a.09.09,0,0,0-.1,0,.1.1,0,0,0,0,.1c3.8,12.53,11.3,15.89,14.35,16.76"/><path class="cls-7" d="M12.08,237.42a17,17,0,0,0,5.2,3.17h0a.1.1,0,0,0,.08,0,18.61,18.61,0,0,0,2.32-13.64,19.88,19.88,0,0,0-1.5-4.42.09.09,0,0,0-.08-.06.1.1,0,0,0-.09,0,28.54,28.54,0,0,0-2.83,7.27l.09,0-.09,0a1.39,1.39,0,0,1-2.51.48,22.38,22.38,0,0,0-8.36-7.52.1.1,0,0,0-.1,0,.1.1,0,0,0,0,.1,32.77,32.77,0,0,0,3,8.39,22.16,22.16,0,0,0,4.85,6.21"/><path class="cls-7" d="M13,225.27h0a.09.09,0,0,0,.08,0,21.42,21.42,0,0,0,3.94-17.49.09.09,0,0,0-.07-.07.1.1,0,0,0-.1,0,28.46,28.46,0,0,0-4,6.57,1.39,1.39,0,0,1-1.27.86h0a1.38,1.38,0,0,1-1.27-.83,22.76,22.76,0,0,0-5.78-7.91c-.37-.32-.76-.63-1.14-.92a.09.09,0,0,0-.1,0,.1.1,0,0,0-.05.09c.57,13,7,18.12,9.7,19.7"/><path class="cls-7" d="M11.65,209.47l.06,0a.1.1,0,0,0,.07,0A16.56,16.56,0,0,0,16.55,200a25.59,25.59,0,0,0,0-8.11.09.09,0,0,0-.06-.07.1.1,0,0,0-.1,0,12,12,0,0,0-3.55,6.18,1.39,1.39,0,0,1-2.69.2,22.62,22.62,0,0,0-4.91-8.47c-.34-.36-.68-.71-1-1a.1.1,0,0,0-.1,0,.1.1,0,0,0-.06.08c-.82,13.1,5.06,18.81,7.63,20.65"/><path class="cls-7" d="M7.85,188a16.81,16.81,0,0,0,3.8,4.68l.06,0a.09.09,0,0,0,.07,0c3-2.79,5-6.74,5.8-11.73a30.85,30.85,0,0,0,.4-4.91.1.1,0,0,0-.06-.09.1.1,0,0,0-.11,0,20.43,20.43,0,0,0-4.33,5.7,1.39,1.39,0,0,1-2.6-.25,22.21,22.21,0,0,0-5.34-9.84.1.1,0,0,0-.1,0,.1.1,0,0,0-.07.08,32.63,32.63,0,0,0,0,8.91A22,22,0,0,0,7.85,188"/><path class="cls-7" d="M9.54,171.76a16.61,16.61,0,0,0,3.54,4.82.1.1,0,0,0,.06,0l.06,0a22,22,0,0,0,6.87-11.81,25.3,25.3,0,0,0,.6-4.34.1.1,0,0,0-.05-.09.09.09,0,0,0-.11,0,28.78,28.78,0,0,0-5.14,5.48,1.39,1.39,0,0,1-2.5-.51A22.12,22.12,0,0,0,8,155.25a.09.09,0,0,0-.1,0,.1.1,0,0,0-.07.08,32.7,32.7,0,0,0-.41,8.9,21.94,21.94,0,0,0,2.11,7.56"/><path class="cls-7" d="M15.22,160.81a.09.09,0,0,0,.07,0l.05,0A19.94,19.94,0,0,0,24,149.89a21.85,21.85,0,0,0,1-4.36.1.1,0,0,0,0-.09.11.11,0,0,0-.1,0,24.77,24.77,0,0,0-5.93,4.92,1.39,1.39,0,0,1-2.45-.78A22,22,0,0,0,12.8,139a.1.1,0,0,0-.17,0,32.78,32.78,0,0,0-1.51,8.81,21.89,21.89,0,0,0,1.16,7.75,16.71,16.71,0,0,0,2.95,5.25"/><path class="cls-7" d="M19.27,145.35a.1.1,0,0,0,.08,0h0a21.28,21.28,0,0,0,9.91-9.82,21,21,0,0,0,1.5-4.07.09.09,0,0,0,0-.1.1.1,0,0,0-.1,0,28.62,28.62,0,0,0-6.51,4.12,1.39,1.39,0,0,1-2.3-1.11,22,22,0,0,0-2.21-11,.09.09,0,0,0-.09-.05h0a.09.09,0,0,0-.09.06A32.63,32.63,0,0,0,16.87,132a21.89,21.89,0,0,0,.17,7.84,16.65,16.65,0,0,0,2.24,5.54"/><path class="cls-7" d="M25.09,130.59a.1.1,0,0,0,.09.06h0a20.15,20.15,0,0,0,10.57-7.93,30.64,30.64,0,0,0,2.73-4.55.09.09,0,0,0,0-.1.1.1,0,0,0-.09,0,13.45,13.45,0,0,0-6.78,3.31,1.39,1.39,0,0,1-2.34-1.26,21.91,21.91,0,0,0-.54-11.16.1.1,0,0,0-.17,0A32.72,32.72,0,0,0,24.7,117a21.86,21.86,0,0,0-1,7.77,16.71,16.71,0,0,0,1.4,5.85"/><path class="cls-7" d="M33.22,116.45h0c6.73-1.13,12-7.2,14.46-10.71a.09.09,0,0,0,0-.11.1.1,0,0,0-.09,0A16.1,16.1,0,0,0,40.67,108a1.39,1.39,0,0,1-2.11-1.58,21.88,21.88,0,0,0,.81-11.13.09.09,0,0,0-.07-.08.1.1,0,0,0-.1,0c-8.42,10.13-7,18.16-6.07,21.14a.09.09,0,0,0,.09.07"/><path class="cls-7" d="M42.69,103.33h.48c4,0,8.16-2.54,11-4.71A43.74,43.74,0,0,0,58.27,95a.1.1,0,0,0,0-.11.12.12,0,0,0-.09-.06,27.59,27.59,0,0,0-7,1.27,1.39,1.39,0,0,1-1.68-2A21.94,21.94,0,0,0,52.13,83.3a.1.1,0,0,0-.06-.08.09.09,0,0,0-.1,0A33,33,0,0,0,46,90a22,22,0,0,0-3.13,7.21,16.38,16.38,0,0,0-.26,6.09.09.09,0,0,0,.09.08"/><path class="cls-7" d="M70.63,85.51a29.83,29.83,0,0,0-7.16.43A1.39,1.39,0,0,1,62,83.82a22,22,0,0,0,3.62-10.56.09.09,0,0,0-.05-.09.09.09,0,0,0-.1,0C54.8,80.87,54,89,54.22,92.08a.1.1,0,0,0,.09.09l.7,0c6.5,0,12.57-4,15.67-6.51a.1.1,0,0,0,0-.11.1.1,0,0,0-.09-.07"/><path class="cls-7" d="M84.3,78.94a23.65,23.65,0,0,0-3.73-.78A28.24,28.24,0,0,0,77,77.91h0a1.39,1.39,0,0,1-.91-2.44,22.55,22.55,0,0,0,6.27-8,.1.1,0,0,0,0-.1.1.1,0,0,0-.1,0C69.82,71.55,67.1,78.81,66.51,81.74a.1.1,0,0,0,.07.11,17.83,17.83,0,0,0,4.94.66A25.64,25.64,0,0,0,79.89,81a35.84,35.84,0,0,0,4.43-1.88.1.1,0,0,0,.05-.1.1.1,0,0,0-.07-.08"/><path class="cls-7" d="M99.19,74.91a30.1,30.1,0,0,0-6.92-2.32A1.39,1.39,0,0,1,91.9,70a19.08,19.08,0,0,0,7.16-5.46.1.1,0,0,0,0-.11.1.1,0,0,0-.1,0c-6.36.89-11.42,3-14.63,6.23a12.9,12.9,0,0,0-2.92,4.27.1.1,0,0,0,0,.13,19.74,19.74,0,0,0,8.31,1.7,27.9,27.9,0,0,0,4.8-.43,33.19,33.19,0,0,0,4.6-1.16.09.09,0,0,0,.07-.08.1.1,0,0,0-.05-.09"/><path class="cls-7" d="M108.9,70.71a1.39,1.39,0,0,1,.08-2.63,24.26,24.26,0,0,0,7.92-3.85.1.1,0,0,0,0-.11.1.1,0,0,0-.09-.07c-6.25-.42-11.55.62-15.32,3a13.08,13.08,0,0,0-3.8,3.55.1.1,0,0,0,0,.13c4.24,3.22,9.72,4,13.9,4,1.3,0,2.48-.07,3.46-.17a.09.09,0,0,0,.08-.07.1.1,0,0,0,0-.1,24.73,24.73,0,0,0-6.27-3.66"/><path class="cls-7" d="M125.2,71.82a1.39,1.39,0,0,1,.62-2.53,27.92,27.92,0,0,0,8.44-2.22.09.09,0,0,0,.06-.09.11.11,0,0,0-.07-.09c-6-1.62-11.31-1.65-15.45-.09a13.12,13.12,0,0,0-4.46,2.72.1.1,0,0,0,0,.13c5.19,6.2,12.46,7.33,16.34,7.45h0a.1.1,0,0,0,.09-.05.09.09,0,0,0,0-.1,28.93,28.93,0,0,0-5.53-5.14"/><path class="cls-7" d="M165.78,92.15a.1.1,0,0,0,.09-.1,18.31,18.31,0,0,0-1.2-6.78c-1.87-4.78-5.66-8.15-11.28-10a.09.09,0,0,0-.1,0,.1.1,0,0,0,0,.1,28.53,28.53,0,0,0,4.43,8.32,1.39,1.39,0,0,1-1.41,2.22,19.1,19.1,0,0,0-7.1-.11.09.09,0,0,0-.08.07.1.1,0,0,0,0,.1c3.54,2.35,10.18,6.19,15.9,6.19l.74,0"/><path class="cls-7" d="M152.87,82.05a.1.1,0,0,0,0-.09A14.32,14.32,0,0,0,141,77.46a21,21,0,0,0-5.05,1,.1.1,0,0,0-.07.08.1.1,0,0,0,0,.09A19,19,0,0,0,147.67,83h.66a15.82,15.82,0,0,0,4.47-.84.1.1,0,0,0,.06-.07"/><path class="cls-7" d="M130,72a.1.1,0,0,0,0,.09,14.72,14.72,0,0,0,8.68,2.52,24.93,24.93,0,0,0,4.53-.45,34.69,34.69,0,0,0,6.18-1.8.1.1,0,0,0,.06-.09.09.09,0,0,0,0-.09,21.89,21.89,0,0,0-6.91-2.5,18.44,18.44,0,0,0-7.37.23,19.22,19.22,0,0,0-5.11,2,.1.1,0,0,0,0,.08"/><path class="cls-3" d="M117.78,331a8.14,8.14,0,0,0,0-3.82c2.93-.59,7.67-2,10.3-5.21a8.48,8.48,0,0,0,1.9-6.55,6.77,6.77,0,0,0-3.07-5.08c-5-3.25-14.46-.88-17.14-.11-2.68-.77-12.15-3.14-17.14.11a6.77,6.77,0,0,0-3.07,5.08A8.47,8.47,0,0,0,91.5,322c2.65,3.23,7.44,4.64,10.36,5.22a8.13,8.13,0,0,0,0,3.76A33.25,33.25,0,0,1,83,340.17h0a14.2,14.2,0,0,0,2.89,3.47,37.07,37.07,0,0,0,17.91-9.14,8.55,8.55,0,0,0,.91.86c-.63,2.42-3.26,8.67-14,11.38a23.91,23.91,0,0,0,6.47,1.84c7.47-3.39,10.13-8.55,11.07-11.56a8.16,8.16,0,0,0,3.16,0c.94,3,3.61,8.16,11.07,11.54a23.92,23.92,0,0,0,6.47-1.84c-10.7-2.7-13.35-8.86-14-11.34a8.44,8.44,0,0,0,.94-.87,37.06,37.06,0,0,0,17.87,9.1,14.15,14.15,0,0,0,2.89-3.47A33.23,33.23,0,0,1,117.78,331"/><path class="cls-4" d="M124.84,313.59a2.91,2.91,0,0,1,1.34,2.28,4.69,4.69,0,0,1-1,3.66,11.2,11.2,0,0,1-5,3,7.21,7.21,0,0,0,.38-5.77,8.83,8.83,0,0,0-3.09-4.1c2.93-.29,5.8-.15,7.4.9"/><path class="cls-4" d="M102.71,318.14c1.44-3.89,6.88-3.95,7.1-3.95h0a11.18,11.18,0,0,1,3.11.52,5.8,5.8,0,0,1,4,3.43c.65,1.76-.58,3.58-1.65,4.74a8.17,8.17,0,0,0-10.88,0c-1.07-1.15-2.33-3-1.67-4.78"/><path class="cls-4" d="M99.48,322.58a11.22,11.22,0,0,1-5-3,4.68,4.68,0,0,1-1-3.67,2.91,2.91,0,0,1,1.34-2.28,9.32,9.32,0,0,1,4.89-1c.81,0,1.65,0,2.5.13a8.83,8.83,0,0,0-3.09,4.1,7.18,7.18,0,0,0,.39,5.78"/><path class="cls-4" d="M105.52,329a4.32,4.32,0,1,1,4.32,4.32,4.33,4.33,0,0,1-4.32-4.32"/><path class="cls-4" d="M133.75,343.64a37,37,0,0,1-17.88-9.1,8.16,8.16,0,0,1-.94.88c.64,2.47,3.3,8.64,14,11.34a18.88,18.88,0,0,0,4.82-3.11"/><path class="cls-4" d="M103.78,334.51a37,37,0,0,1-17.91,9.13,18.81,18.81,0,0,0,4.82,3.11c10.74-2.71,13.38-9,14-11.38a8.16,8.16,0,0,1-.92-.87"/><path class="cls-3" d="M305.91,22.82h15.37l17,27.41,17-27.41h15.37V87.63H356.55V45.32L338.31,73h-.37L319.89,45.6v42h-14Z"/><path class="cls-3" d="M385.08,20H399.9v12.5H385.08Zm.37,18h14.08V87.63H385.45Z"/><path class="cls-3" d="M412.77,38h14.07v7c3.24-4.17,7.41-8,14.54-8,10.65,0,16.85,7,16.85,18.43V87.63H444.15V59.95c0-6.67-3.15-10.09-8.52-10.09s-8.79,3.43-8.79,10.09V87.63H412.77Z"/><path class="cls-3" d="M470.73,20h14.81v12.5H470.73Zm.37,18h14.07V87.63H471.1Z"/><path class="cls-3" d="M494.53,81.06l6-9.26c5.37,3.89,11,5.93,15.65,5.93,4.07,0,5.93-1.48,5.93-3.7v-.19c0-3.06-4.81-4.08-10.28-5.74-6.95-2-14.81-5.28-14.81-14.91V53c0-10.09,8.15-15.74,18.15-15.74A34.35,34.35,0,0,1,533.7,43l-5.37,9.72c-4.91-2.87-9.82-4.63-13.43-4.63-3.43,0-5.19,1.48-5.19,3.43v.19c0,2.78,4.72,4.07,10.09,5.93,6.95,2.31,15,5.65,15,14.72v.19c0,11-8.24,16-19,16A34.76,34.76,0,0,1,494.53,81.06Z"/><path class="cls-3" d="M547.22,73.56V50h-5.93V38h5.93V25.32h14.07V38H573V50H561.29v21.2c0,3.24,1.39,4.82,4.54,4.82a14.3,14.3,0,0,0,6.94-1.76v11.3a20.75,20.75,0,0,1-11.11,2.87C553.05,88.47,547.22,85,547.22,73.56Z"/><path class="cls-3" d="M580.92,63.1v-.18c0-14.17,10.09-25.83,24.54-25.83,16.57,0,24.17,12.87,24.17,26.94,0,1.11-.09,2.4-.19,3.7H594.91c1.39,6.39,5.83,9.72,12.13,9.72,4.72,0,8.15-1.48,12-5.09l8.05,7.13c-4.63,5.74-11.29,9.26-20.28,9.26C591.95,88.74,580.92,78.28,580.92,63.1Zm35-4.17c-.83-6.29-4.54-10.55-10.46-10.55s-9.63,4.17-10.74,10.55Z"/><path class="cls-3" d="M640.1,38h14.07V48c2.87-6.85,7.5-11.3,15.83-10.93V51.8h-.74c-9.35,0-15.09,5.65-15.09,17.5V87.63H640.1Z"/><path class="cls-3" d="M679.08,20H693.9v12.5H679.08Zm.37,18h14.07V87.63H679.45Z"/><path class="cls-3" d="M704.36,63.1v-.18c0-14.26,11.48-25.83,26.94-25.83s26.76,11.39,26.76,25.65v.19c0,14.26-11.48,25.83-26.94,25.83S704.36,77.35,704.36,63.1Zm39.81,0v-.18c0-7.32-5.28-13.7-13.05-13.7-8.05,0-12.87,6.2-12.87,13.52v.19c0,7.31,5.28,13.7,13.06,13.7C739.36,76.61,744.17,70.41,744.17,63.1Z"/><path class="cls-3" d="M793.81,62.91v-.19c0-16.57,10.84-25.65,22.59-25.65a19.06,19.06,0,0,1,15.46,7.41V20h14.07V87.63H831.87V80.5c-3.43,4.63-8.15,8.05-15.46,8.05C804.83,88.56,793.81,79.48,793.81,62.91Zm38.24,0v-.19c0-8.24-5.46-13.7-12-13.7s-12.13,5.37-12.13,13.7v.19c0,8.24,5.56,13.7,12.13,13.7S832.05,71.15,832.05,62.91Z"/><path class="cls-3" d="M856.13,63.1v-.18c0-14.17,10.09-25.83,24.54-25.83,16.57,0,24.17,12.87,24.17,26.94,0,1.11-.09,2.4-.19,3.7H870.11c1.39,6.39,5.83,9.72,12.13,9.72,4.72,0,8.15-1.48,12-5.09l8.05,7.13c-4.63,5.74-11.29,9.26-20.28,9.26C867.15,88.74,856.13,78.28,856.13,63.1Zm35-4.17c-.83-6.29-4.54-10.55-10.46-10.55S871,52.54,869.92,58.93Z"/><path class="cls-3" d="M966.78,22.36h13.15l27.77,65.28H992.8L986.87,73.1H959.47l-5.93,14.54H939Zm15,38.15-8.61-21-8.61,21Z"/><path class="cls-3" d="M1016.23,38h14.07v7c3.24-4.17,7.5-8,14.63-8,6.48,0,11.39,2.87,14,7.87,4.36-5.09,9.54-7.87,16.3-7.87,10.46,0,16.76,6.3,16.76,18.24V87.63H1077.9V59.95c0-6.67-3-10.09-8.24-10.09s-8.52,3.43-8.52,10.09V87.63h-14.08V59.95c0-6.67-3-10.09-8.24-10.09s-8.52,3.43-8.52,10.09V87.63h-14.07Z"/><path class="cls-3" d="M1118.27,81.15v6.48H1104.2V20h14.07V45.13c3.43-4.63,8.15-8.05,15.46-8.05,11.57,0,22.59,9.07,22.59,25.65v.19c0,16.57-10.84,25.65-22.59,25.65A19.07,19.07,0,0,1,1118.27,81.15Zm24-18.24v-.19c0-8.24-5.55-13.7-12.13-13.7s-12,5.46-12,13.7v.19c0,8.24,5.46,13.7,12,13.7S1142.25,71.24,1142.25,62.91Z"/><path class="cls-3" d="M1167,20h14.81v12.5H1167Zm.36,18h14.08V87.63h-14.08Z"/><path class="cls-3" d="M1192.26,63.1v-.18c0-14.17,10.1-25.83,24.54-25.83,16.57,0,24.16,12.87,24.16,26.94,0,1.11-.09,2.4-.18,3.7h-34.54c1.38,6.39,5.84,9.72,12.13,9.72,4.72,0,8.15-1.48,12-5.09l8.05,7.13c-4.63,5.74-11.29,9.26-20.28,9.26C1203.28,88.74,1192.26,78.28,1192.26,63.1Zm35-4.17c-.84-6.29-4.54-10.55-10.46-10.55s-9.62,4.17-10.74,10.55Z"/><path class="cls-3" d="M1251.44,38h14.07v7c3.24-4.17,7.41-8,14.54-8,10.64,0,16.85,7,16.85,18.43V87.63h-14.07V59.95c0-6.67-3.15-10.09-8.52-10.09s-8.79,3.43-8.79,10.09V87.63h-14.07Z"/><path class="cls-3" d="M1311.44,73.56V50h-5.92V38h5.92V25.32h14.08V38h11.66V50h-11.66v21.2c0,3.24,1.39,4.82,4.54,4.82A14.3,14.3,0,0,0,1337,74.3v11.3a20.75,20.75,0,0,1-11.11,2.87C1317.28,88.47,1311.44,85,1311.44,73.56Z"/><path class="cls-3" d="M1345.15,63.1v-.18c0-14.17,10.09-25.83,24.53-25.83,16.58,0,24.17,12.87,24.17,26.94,0,1.11-.09,2.4-.18,3.7h-34.54c1.39,6.39,5.83,9.72,12.13,9.72,4.72,0,8.14-1.48,12-5.09l8,7.13c-4.62,5.74-11.29,9.26-20.28,9.26C1356.16,88.74,1345.15,78.28,1345.15,63.1Zm35-4.17c-.83-6.29-4.53-10.55-10.46-10.55s-9.62,4.17-10.73,10.55Z"/><path class="cls-3" d="M337,135.79h14.63l-19.07,50.83c-3.8,10.1-7.87,13.89-16.3,13.89a23.31,23.31,0,0,1-12.5-3.43l4.72-10.18a12.86,12.86,0,0,0,6,1.94c2.41,0,3.7-.75,4.91-3.24L300,135.79h14.91l11.3,33.8Z"/><path class="cls-3" d="M389.25,120.61h25.28c20.37,0,34.44,14,34.44,32.22V153c0,18.24-14.07,32.41-34.44,32.41H389.25Zm14.26,12.87v39.07h11c11.67,0,19.54-7.87,19.54-19.35V153c0-11.48-7.87-19.54-19.54-19.54Z"/><path class="cls-3" d="M457.77,160.88v-.18c0-14.17,10.09-25.83,24.54-25.83,16.57,0,24.17,12.87,24.17,26.94,0,1.11-.09,2.41-.19,3.7H471.75c1.39,6.39,5.83,9.72,12.13,9.72,4.72,0,8.15-1.48,12-5.09l8.05,7.13c-4.63,5.74-11.29,9.26-20.28,9.26C468.79,186.53,457.77,176.07,457.77,160.88Zm35-4.17c-.83-6.3-4.54-10.55-10.46-10.55s-9.63,4.17-10.74,10.55Z"/><path class="cls-3" d="M513.05,178.84l6-9.26c5.37,3.89,11,5.93,15.65,5.93,4.07,0,5.93-1.48,5.93-3.7v-.19c0-3.06-4.81-4.08-10.28-5.74-6.94-2-14.81-5.28-14.81-14.91v-.19c0-10.09,8.15-15.74,18.15-15.74a34.35,34.35,0,0,1,18.52,5.74l-5.37,9.72c-4.91-2.87-9.82-4.63-13.42-4.63-3.43,0-5.19,1.48-5.19,3.43v.19c0,2.78,4.72,4.07,10.09,5.93,6.94,2.31,15,5.65,15,14.72v.18c0,11-8.24,16-19,16A34.77,34.77,0,0,1,513.05,178.84Z"/><path class="cls-3" d="M560.46,171.16V171c0-10.83,8.24-15.83,20-15.83a35.24,35.24,0,0,1,12.13,2v-.83c0-5.83-3.61-9.07-10.65-9.07a36.48,36.48,0,0,0-13.7,2.69l-3.52-10.74a43.77,43.77,0,0,1,19.26-4c7.68,0,13.24,2,16.76,5.56,3.7,3.7,5.37,9.17,5.37,15.83v28.79H592.5v-5.37c-3.43,3.79-8.15,6.3-15,6.3C568.15,186.35,560.46,181,560.46,171.16Zm32.31-3.24v-2.5a21.85,21.85,0,0,0-9-1.85c-6,0-9.72,2.4-9.72,6.85v.19c0,3.8,3.15,6,7.68,6C588.33,176.63,592.78,173,592.78,167.92Z"/><path class="cls-3" d="M618.24,135.79h14.07v10c2.87-6.85,7.5-11.3,15.83-10.93v14.72h-.74c-9.35,0-15.09,5.65-15.09,17.5v18.33H618.24Z"/><path class="cls-3" d="M657,135.79H671v10c2.87-6.85,7.5-11.3,15.83-10.93v14.72h-.74c-9.35,0-15.09,5.65-15.09,17.5v18.33H657Z"/><path class="cls-3" d="M693.25,160.88v-.18c0-14.26,11.48-25.83,26.94-25.83S747,146.25,747,160.51v.19c0,14.26-11.48,25.83-26.94,25.83S693.25,175.14,693.25,160.88Zm39.81,0v-.18c0-7.31-5.28-13.7-13.06-13.7-8.05,0-12.87,6.2-12.87,13.52v.19c0,7.31,5.28,13.7,13.06,13.7C728.25,174.4,733.07,168.2,733.07,160.88Z"/><path class="cls-3" d="M757.79,117.83h14.07v67.59H757.79Z"/><path class="cls-3" d="M785.76,117.83h14.07v67.59H785.76Z"/><path class="cls-3" d="M810.67,160.88v-.18c0-14.26,11.48-25.83,26.94-25.83s26.76,11.39,26.76,25.65v.19c0,14.26-11.48,25.83-26.94,25.83S810.67,175.14,810.67,160.88Zm39.81,0v-.18c0-7.31-5.28-13.7-13.06-13.7-8.05,0-12.87,6.2-12.87,13.52v.19c0,7.31,5.28,13.7,13.05,13.7C845.66,174.4,850.48,168.2,850.48,160.88Z"/><path class="cls-3" d="M899.37,176l8.42-10.09c5.83,4.82,11.95,7.87,19.35,7.87,5.83,0,9.35-2.31,9.35-6.11v-.19c0-3.61-2.22-5.46-13.05-8.24C910.39,155.89,902,152.27,902,139.4v-.18c0-11.76,9.44-19.54,22.68-19.54a37.51,37.51,0,0,1,24.07,8.24l-7.41,10.74c-5.74-4-11.39-6.39-16.85-6.39s-8.33,2.5-8.33,5.65v.19c0,4.26,2.78,5.65,14,8.52,13.15,3.43,20.55,8.15,20.55,19.44v.18c0,12.87-9.81,20.09-23.79,20.09A41.25,41.25,0,0,1,899.37,176Z"/><path class="cls-3" d="M961.23,167.92V135.79h14.07v27.68c0,6.67,3.15,10.09,8.52,10.09s8.8-3.43,8.8-10.09V135.79h14.07v49.63H992.62v-7c-3.25,4.17-7.41,8-14.54,8C967.44,186.35,961.23,179.31,961.23,167.92Z"/><path class="cls-3" d="M1015.4,178.84l6-9.26c5.37,3.89,11,5.93,15.65,5.93,4.08,0,5.93-1.48,5.93-3.7v-.19c0-3.06-4.81-4.08-10.27-5.74-6.95-2-14.82-5.28-14.82-14.91v-.19c0-10.09,8.15-15.74,18.15-15.74a34.33,34.33,0,0,1,18.52,5.74l-5.37,9.72c-4.91-2.87-9.82-4.63-13.43-4.63-3.43,0-5.18,1.48-5.18,3.43v.19c0,2.78,4.72,4.07,10.09,5.93,6.95,2.31,15,5.65,15,14.72v.18c0,11-8.24,16-19,16A34.76,34.76,0,0,1,1015.4,178.84Z"/><path class="cls-3" d="M1068.09,171.35V147.83h-5.93v-12h5.93V123.11h14.07v12.69h11.67v12h-11.67V169c0,3.24,1.39,4.82,4.54,4.82a14.31,14.31,0,0,0,6.95-1.76v11.3a20.77,20.77,0,0,1-11.11,2.87C1073.92,186.26,1068.09,182.83,1068.09,171.35Z"/><path class="cls-3" d="M1101.8,160.88v-.18c0-14.17,10.09-25.83,24.54-25.83,16.58,0,24.17,12.87,24.17,26.94,0,1.11-.1,2.41-.19,3.7h-34.54c1.39,6.39,5.83,9.72,12.13,9.72,4.72,0,8.15-1.48,12-5.09l8.05,7.13c-4.63,5.74-11.29,9.26-20.28,9.26C1112.82,186.53,1101.8,176.07,1101.8,160.88Zm35-4.17c-.83-6.3-4.54-10.55-10.46-10.55s-9.63,4.17-10.74,10.55Z"/><path class="cls-3" d="M1161,135.79H1175v7c3.24-4.17,7.4-8,14.53-8,10.65,0,16.86,7,16.86,18.43v32.13h-14.08V157.73c0-6.67-3.14-10.09-8.52-10.09s-8.79,3.43-8.79,10.09v27.68H1161Z"/><path class="cls-3" d="M1221,171.35V147.83H1215v-12H1221V123.11H1235v12.69h11.67v12H1235V169c0,3.24,1.39,4.82,4.54,4.82a14.3,14.3,0,0,0,6.94-1.76v11.3a20.77,20.77,0,0,1-11.11,2.87C1226.8,186.26,1221,182.83,1221,171.35Z"/><path class="cls-3" d="M1254.13,171.16V171c0-10.83,8.24-15.83,20-15.83a35.24,35.24,0,0,1,12.13,2v-.83c0-5.83-3.61-9.07-10.65-9.07a36.48,36.48,0,0,0-13.7,2.69l-3.52-10.74a43.78,43.78,0,0,1,19.26-4c7.68,0,13.24,2,16.76,5.56,3.71,3.7,5.37,9.17,5.37,15.83v28.79h-13.6v-5.37c-3.43,3.79-8.15,6.3-15,6.3C1261.81,186.35,1254.13,181,1254.13,171.16Zm32.31-3.24v-2.5a21.82,21.82,0,0,0-9-1.85c-6,0-9.72,2.4-9.72,6.85v.19c0,3.8,3.15,6,7.68,6C1282,176.63,1286.43,173,1286.43,167.92Z"/><path class="cls-3" d="M1326,178.94v6.48H1311.9V117.83H1326v25.09c3.43-4.63,8.15-8.06,15.47-8.06,11.57,0,22.59,9.07,22.59,25.65v.19c0,16.58-10.83,25.65-22.59,25.65A19.05,19.05,0,0,1,1326,178.94Zm24-18.24v-.19c0-8.24-5.56-13.7-12.13-13.7s-12,5.47-12,13.7v.19c0,8.24,5.46,13.7,12,13.7S1350,169,1350,160.7Z"/><path class="cls-3" d="M1375.06,117.83h14.08v67.59h-14.08Z"/><path class="cls-3" d="M1400,160.88v-.18c0-14.17,10.1-25.83,24.54-25.83,16.57,0,24.16,12.87,24.16,26.94,0,1.11-.09,2.41-.18,3.7h-34.54c1.38,6.39,5.83,9.72,12.13,9.72,4.72,0,8.14-1.48,12-5.09l8.05,7.13c-4.63,5.74-11.29,9.26-20.28,9.26C1411,186.53,1400,176.07,1400,160.88Zm35-4.17c-.84-6.3-4.54-10.55-10.46-10.55s-9.62,4.17-10.74,10.55Z"/><path class="cls-3" d="M310.37,232.55h37.26c22.14,0,35.92,12.56,35.92,31.59v.27c0,21.2-17,32.26-37.81,32.26H327v30.38H310.37Zm35.92,49.15c12.55,0,20.39-7,20.39-16.88v-.27c0-11.07-8-16.88-20.39-16.88H327v34Z"/><path class="cls-3" d="M398.68,255.77H415v16.06c4.46-10.67,12.69-18,25.25-17.42V271.7h-.94C425,271.7,415,281,415,299.92v27.14H398.68Z"/><path class="cls-3" d="M450.54,291.68v-.26c0-20.39,14.44-37.14,34.83-37.14,22.68,0,34.16,17.83,34.16,38.34,0,1.49-.13,3-.27,4.59H466.88c1.75,11.61,10,18.1,20.52,18.1,8,0,13.64-3,19.31-8.51l9.59,8.51c-6.75,8.09-16.07,13.37-29.16,13.37C466.47,328.68,450.54,313.69,450.54,291.68Zm52.79-5.26c-1.08-10.53-7.29-18.77-18.09-18.77-10,0-17,7.7-18.5,18.77Z"/><path class="cls-3" d="M530.21,317.74l7.29-11.07c7.83,5.81,16.07,8.77,23.36,8.77,7,0,11.07-3,11.07-7.7v-.27c0-5.53-7.56-7.42-15.93-10-10.53-3-22.28-7.29-22.28-20.92v-.27c0-13.5,11.21-21.73,25.38-21.73a49.45,49.45,0,0,1,26.19,8.1l-6.48,11.61c-6.88-4.18-14.18-6.75-20.12-6.75-6.35,0-10,3-10,7v.27c0,5.27,7.7,7.42,16.07,10.12,10.4,3.24,22.14,8,22.14,20.8V306c0,15-11.61,22.41-26.46,22.41A50.06,50.06,0,0,1,530.21,317.74Z"/><path class="cls-3" d="M603.94,229.3H621.5v15.53H603.94Zm.67,26.47H621v71.28H604.62Z"/><path class="cls-3" d="M638.65,291.55v-.27c0-23.63,16.07-37,33.08-37,11.75,0,19.17,5.81,24.3,12.56V228.49h16.34v98.56H696V315.17c-5.27,7.42-12.69,13.37-24.3,13.37C655,328.54,638.65,315.17,638.65,291.55Zm57.65,0v-.27c0-13.78-9.72-22.82-20.66-22.82-11.21,0-20.52,8.64-20.52,22.82v.27c0,13.77,9.45,22.82,20.52,22.82S696.3,305.18,696.3,291.55Z"/><path class="cls-3" d="M729,291.68v-.26c0-20.39,14.44-37.14,34.83-37.14,22.68,0,34.16,17.83,34.16,38.34,0,1.49-.13,3-.27,4.59H745.33c1.76,11.61,10,18.1,20.52,18.1,8,0,13.63-3,19.31-8.51l9.59,8.51c-6.75,8.09-16.07,13.37-29.16,13.37C744.92,328.68,729,313.69,729,291.68Zm52.79-5.26c-1.08-10.53-7.29-18.77-18.09-18.77-10,0-17,7.7-18.5,18.77Z"/><path class="cls-3" d="M814.47,255.77h16.34V266.7c4.59-6.61,11.21-12.42,22.28-12.42,16.07,0,25.38,10.8,25.38,27.28v45.5H862.13v-40.5c0-11.08-5.54-17.42-15.26-17.42-9.45,0-16.07,6.61-16.07,17.69v40.23H814.47Z"/><path class="cls-3" d="M894.29,291.81v-.27c0-20.25,15.66-37.27,37.13-37.27,13.37,0,21.74,5,28.49,12.29L949.64,277.5c-5-5.26-10.26-8.91-18.36-8.91-11.88,0-20.65,10.26-20.65,22.68v.27c0,12.69,8.77,22.82,21.33,22.82,7.7,0,13.37-3.52,18.5-8.78l9.85,9.72c-7,7.83-15.26,13.37-29.16,13.37C909.94,328.68,894.29,312.07,894.29,291.81Z"/><path class="cls-3" d="M975.58,229.3h17.55v15.53H975.58Zm.67,26.47h16.34v71.28H976.25Z"/><path class="cls-3" d="M1009.2,306.53v-.27c0-15.39,12-23,29.44-23a59.59,59.59,0,0,1,19.17,3v-1.75c0-10.13-6.22-15.53-17.69-15.53-8,0-13.9,1.75-20.38,4.45l-4.32-12.82a60.73,60.73,0,0,1,26.87-5.81c10.67,0,18.64,2.83,23.63,8,5.27,5.13,7.7,12.69,7.7,22v42.26h-15.93v-8.91c-4.86,5.81-12.29,10.39-23.22,10.39C1021.08,328.54,1009.2,320.84,1009.2,306.53Zm48.87-5.13v-4.86a45.34,45.34,0,0,0-16.2-2.83c-10.53,0-16.74,4.46-16.74,11.89v.27c0,6.89,6.07,10.8,13.91,10.8C1049.84,316.65,1058.08,310.45,1058.08,301.4Z"/><path class="cls-3" d="M1130.06,291.55v-.27c0-23.63,16.07-37,33.08-37,11.75,0,19.17,5.81,24.31,12.56V228.49h16.34v98.56h-16.34V315.17c-5.27,7.42-12.69,13.37-24.31,13.37C1146.4,328.54,1130.06,315.17,1130.06,291.55Zm57.65,0v-.27c0-13.78-9.72-22.82-20.66-22.82-11.2,0-20.52,8.64-20.52,22.82v.27c0,13.77,9.45,22.82,20.52,22.82S1187.71,305.18,1187.71,291.55Z"/><path class="cls-3" d="M1220.4,291.68v-.26c0-20.39,14.45-37.14,34.84-37.14,22.68,0,34.15,17.83,34.15,38.34,0,1.49-.13,3-.27,4.59h-52.39c1.75,11.61,10,18.1,20.53,18.1,8,0,13.63-3,19.31-8.51l9.59,8.51c-6.75,8.09-16.07,13.37-29.17,13.37C1236.34,328.68,1220.4,313.69,1220.4,291.68Zm52.79-5.26c-1.08-10.53-7.29-18.77-18.09-18.77-10,0-17,7.7-18.5,18.77Z"/><path class="cls-3" d="M1347.34,228.49h16.34v98.56h-16.34Z"/><path class="cls-3" d="M1380.29,306.53v-.27c0-15.39,12-23,29.43-23a59.61,59.61,0,0,1,19.17,3v-1.75c0-10.13-6.21-15.53-17.69-15.53-8,0-13.91,1.75-20.39,4.45l-4.32-12.82a60.7,60.7,0,0,1,26.87-5.81c10.67,0,18.63,2.83,23.62,8,5.27,5.13,7.7,12.69,7.7,22v42.26h-15.93v-8.91c-4.86,5.81-12.29,10.39-23.23,10.39C1392.17,328.54,1380.29,320.84,1380.29,306.53Zm48.87-5.13v-4.86a45.31,45.31,0,0,0-16.2-2.83c-10.53,0-16.74,4.46-16.74,11.89v.27c0,6.89,6.07,10.8,13.9,10.8C1420.93,316.65,1429.16,310.45,1429.16,301.4Z"/><path class="cls-3" d="M1506.69,232.55h15.39l50.63,65.35V232.55H1589v94.51h-13.91L1523,259.82v67.24h-16.34Z"/><path class="cls-3" d="M1606.75,306.53v-.27c0-15.39,12-23,29.44-23a59.62,59.62,0,0,1,19.17,3v-1.75c0-10.13-6.21-15.53-17.69-15.53-8,0-13.91,1.75-20.39,4.45L1613,260.63a60.69,60.69,0,0,1,26.87-5.81c10.67,0,18.63,2.83,23.62,8,5.27,5.13,7.7,12.69,7.7,22v42.26h-15.93v-8.91c-4.86,5.81-12.29,10.39-23.22,10.39C1618.64,328.54,1606.75,320.84,1606.75,306.53Zm48.88-5.13v-4.86a45.32,45.32,0,0,0-16.2-2.83c-10.53,0-16.73,4.46-16.73,11.89v.27c0,6.89,6.07,10.8,13.9,10.8C1647.39,316.65,1655.63,310.45,1655.63,301.4Z"/><path class="cls-3" d="M1686.83,291.81v-.27c0-20.25,15.66-37.27,37.13-37.27,13.37,0,21.73,5,28.48,12.29l-10.26,10.93c-5-5.26-10.26-8.91-18.36-8.91-11.89,0-20.66,10.26-20.66,22.68v.27c0,12.69,8.78,22.82,21.34,22.82,7.7,0,13.37-3.52,18.5-8.78l9.86,9.72c-7,7.83-15.26,13.37-29.17,13.37C1702.49,328.68,1686.83,312.07,1686.83,291.81Z"/><path class="cls-3" d="M1768.13,229.3h17.55v15.53h-17.55Zm.67,26.47h16.34v71.28H1768.8Z"/><path class="cls-3" d="M1802.56,291.81v-.27c0-20.38,16.2-37.27,38.07-37.27s37.95,16.61,37.95,37v.27c0,20.25-16.21,37.13-38.21,37.13C1818.63,328.68,1802.56,312.07,1802.56,291.81Zm59.68,0v-.27c0-12.56-9.05-23-21.88-23-13.1,0-21.46,10.26-21.46,22.68v.27c0,12.42,9,22.82,21.73,22.82C1853.87,314.37,1862.24,304.1,1862.24,291.81Zm-14.18-67.24,14.85,6.61-16.61,15.53H1834Z"/><path class="cls-3" d="M1895.2,255.77h16.34V266.7c4.59-6.61,11.2-12.42,22.28-12.42,16.06,0,25.38,10.8,25.38,27.28v45.5h-16.34v-40.5c0-11.08-5.54-17.42-15.26-17.42-9.45,0-16.06,6.61-16.06,17.69v40.23H1895.2Z"/><path class="cls-4" d="M104.68,335a6.52,6.52,0,0,0-.25-3.81A33.45,33.45,0,0,1,96.35,339C92.16,341.43,85,343,83.8,343.29a18.67,18.67,0,0,0,3,2.79,28.77,28.77,0,0,0,11.92-4c3.42-2,5.95-7,5.95-7"/><path class="cls-4" d="M136.43,343.29C135,343,128,341.43,123.88,339a33.08,33.08,0,0,1-8.13-7.78,7.44,7.44,0,0,0-.14,3.81s2.57,5,5.95,7a29.43,29.43,0,0,0,11.84,4h.06a15.91,15.91,0,0,0,3-2.79"/></g></g></svg>